<?xml version="1.0" encoding="UTF-8"?>
<svg version="1.1" xmlns="http://www.w3.org/2000/svg" width="1024" height="1024">
<path d="M0 0 C2.52574149 2.21947048 5.02634852 4.46159125 7.5078125 6.73046875 C9.13205496 8.20959863 10.77213216 9.67158119 12.4296875 11.11328125 C18.95157599 16.81211991 24.88262075 22.96754756 30.61962891 29.44677734 C31.56362446 30.50898104 32.52527668 31.55568294 33.50146484 32.58837891 C34.91796875 34.14453125 34.91796875 34.14453125 37 37 C36.69219101 40.28837922 35.55906684 41.76504094 33.078125 43.84765625 C32.16788574 44.62338989 32.16788574 44.62338989 31.23925781 45.41479492 C30.58280273 45.9585376 29.92634766 46.50228027 29.25 47.0625 C28.23824707 47.91968628 28.23824707 47.91968628 27.20605469 48.79418945 C25.14452208 50.53817252 23.07324166 52.26996388 21 54 C18.74752639 55.89290667 16.49849624 57.78987177 14.25 59.6875 C13.72092041 60.13262939 13.19184082 60.57775879 12.64672852 61.03637695 C8.16145673 64.82457112 3.81737734 68.75692857 -0.51171875 72.72265625 C-6.78451 78.46368811 -13.23415142 83.84730513 -20 89 C-23.27655508 87.59473786 -25.15432686 85.97082527 -27.4375 83.25 C-28.0459375 82.53457031 -28.654375 81.81914062 -29.28125 81.08203125 C-30.68471391 79.38192611 -32.06462181 77.66239823 -33.4375 75.9375 C-52.74375813 53.80593581 -82.27970103 40.12531145 -111 36 C-128.08758063 35.08820962 -145.55113532 34.83162073 -162 40 C-163.17127441 40.36206543 -163.17127441 40.36206543 -164.36621094 40.73144531 C-194.82488444 50.42894048 -221.15824556 70.45709498 -236.28320312 98.91699219 C-249.63315783 125.12292793 -254.71766836 157.09923079 -245.875 185.5625 C-236.99104452 210.14833029 -218.81019679 232.84573452 -195.55859375 245.30859375 C-194.78708984 245.65083984 -194.78708984 245.65083984 -194 246 C-194.43480978 249.18860507 -194.86712076 252.34980464 -195.51171875 255.50390625 C-199.71675806 276.94662444 -196.39803316 297.91416755 -184.7265625 316.55859375 C-178.57706009 325.25415711 -169.00876546 337.04230178 -158.1875 339.6875 C-157.465625 339.790625 -156.74375 339.89375 -156 340 C-156 340.66 -156 341.32 -156 342 C-132.90689891 352.38685333 -108.23585843 354.4891424 -84.1875 345.6875 C-67.80024772 338.87459561 -55.10121077 328.7559857 -43 316 C-42.46890625 316.40992188 -41.9378125 316.81984375 -41.390625 317.2421875 C-40.33101562 318.05042969 -40.33101562 318.05042969 -39.25 318.875 C-38.55390625 319.40867187 -37.8578125 319.94234375 -37.140625 320.4921875 C-35.15277397 321.89238914 -33.20156614 322.97855265 -31 324 C-31 324.66 -31 325.32 -31 326 C-30.41154297 326.27384521 -29.82308594 326.54769043 -29.21679688 326.82983398 C-27.07189326 327.96205018 -25.39091422 329.17494077 -23.53125 330.72265625 C-22.88397949 331.25648926 -22.23670898 331.79032227 -21.56982422 332.34033203 C-20.88678223 332.90864746 -20.20374023 333.47696289 -19.5 334.0625 C-14.69332568 338.01716603 -9.87258354 341.91385643 -4.875 345.625 C-0.31420257 349.01732866 4.23920292 352.41645652 8.75 355.875 C9.37148926 356.33986816 9.99297852 356.80473633 10.63330078 357.28369141 C12.14583838 358.45221763 13.58098284 359.71952594 15 361 C15 364.44023953 14.6780229 364.72114138 12.4375 367.109375 C11.61185547 367.99496094 11.61185547 367.99496094 10.76953125 368.8984375 C10.18558594 369.50945312 9.60164063 370.12046875 9 370.75 C8.44699219 371.34554688 7.89398437 371.94109375 7.32421875 372.5546875 C-22.8473346 404.59895795 -63.30803743 422.39975696 -107 425 C-108.16015625 425.0721875 -109.3203125 425.144375 -110.515625 425.21875 C-151.26365516 426.39985232 -192.16093226 410.55855977 -221.9375 383 C-231.03642982 374.34873326 -238.67964943 364.97075216 -245.30859375 354.30078125 C-246.86066594 351.72585759 -246.86066594 351.72585759 -250 351 C-249.67 350.34 -249.34 349.68 -249 349 C-250.15867134 346.43715072 -251.37439536 343.98216397 -252.6875 341.5 C-261 325.3474657 -261 325.3474657 -261 320 C-261.99 319.67 -262.98 319.34 -264 319 C-264.33 318.67 -264.66 318.34 -265 318 C-265 315 -265 315 -264 314 C-264.79781635 303.57140051 -265.93156553 290.50417741 -273.9375 283.125 C-274.89140625 282.3515625 -275.8453125 281.578125 -276.828125 280.78125 C-281.02938971 277.35012863 -284.02746352 272.99486692 -287.1875 268.625 C-287.78699463 267.79653564 -288.38648926 266.96807129 -289.00415039 266.11450195 C-299.61629203 251.26689624 -307.9416066 235.76668859 -314.5 218.75 C-314.850625 217.84443359 -315.20125 216.93886719 -315.5625 216.00585938 C-315.8821875 215.15314453 -316.201875 214.30042969 -316.53125 213.421875 C-316.81548828 212.66487305 -317.09972656 211.90787109 -317.39257812 211.12792969 C-318 209 -318 209 -318 205 C-318.99 204.67 -319.98 204.34 -321 204 C-320.34 204 -319.68 204 -319 204 C-319.25394531 203.07445312 -319.50789063 202.14890625 -319.76953125 201.1953125 C-332.63409856 151.96263847 -326.29101272 97.78236666 -300.5234375 53.69140625 C-286.67742344 30.70428219 -268.45701131 9.22875362 -247 -7 C-245.98164063 -7.78503906 -244.96328125 -8.57007813 -243.9140625 -9.37890625 C-209.9073331 -35 -209.9073331 -35 -194 -35 C-193.67 -35.66 -193.34 -36.32 -193 -37 C-190.99163155 -37.49328348 -188.97736303 -37.96673845 -186.94921875 -38.37109375 C-183.51222207 -39.10401622 -180.14438879 -40.02748547 -176.75 -40.9375 C-115.68465587 -56.23782881 -47.93504384 -41.08718044 0 0 Z " fill="#6DCBD1" transform="translate(642,341)"/>
<path d="M0 0 C4.24060748 1.8721505 6.16096784 4.67733484 8.6875 8.4375 C15.55837875 18.33856692 23.20752494 27.37297629 31.421875 36.17578125 C33.2150769 38.14015242 34.92194226 40.09749596 36.6015625 42.15234375 C38.5293737 44.44122708 40.3443739 46.34110591 42.625 48.25 C45.91386052 51.04614733 49.09016093 53.93370888 52.25 56.875 C61.22851482 65.93968908 61.22851482 65.93968908 72 71 C72.99 72.051875 72.99 72.051875 74 73.125 C77.6660347 76.96718051 82.30692785 79.58286018 87 82 C87.66 82 88.32 82 89 82 C89 82.66 89 83.32 89 84 C90.25490234 84.37898437 90.25490234 84.37898437 91.53515625 84.765625 C95.35009848 86.12472505 98.85616418 87.88335369 102.4375 89.75 C154.1731145 116.04978146 215.33934417 120.1690135 270.4519043 102.40405273 C296.49294216 93.60517342 320.77779284 80.47905688 342 63 C342.54930176 62.55221191 343.09860352 62.10442383 343.66455078 61.64306641 C357.04918017 50.67537095 369.37073244 38.67223879 380 25 C381.2913781 23.4164313 382.58304584 21.83309876 383.875 20.25 C386.29346124 17.23667531 388.61529076 14.17211081 390.875 11.0390625 C391.61967529 10.00797363 391.61967529 10.00797363 392.37939453 8.95605469 C393.36577336 7.58356153 394.34607394 6.20667678 395.31982422 4.82519531 C396.49896618 3.1815942 397.74410482 1.58572624 399 0 C399.66 0 400.32 0 401 0 C401 0.66 401 1.32 401 2 C401.54140625 2.22300781 402.0828125 2.44601562 402.640625 2.67578125 C405.749753 4.42080508 408.17855757 6.75311414 410.75 9.1875 C411.82747578 10.19210302 412.90560045 11.19601053 413.984375 12.19921875 C414.50451172 12.68438965 415.02464844 13.16956055 415.56054688 13.66943359 C417.34252877 15.31661835 419.1633396 16.91414406 421 18.5 C424.39052017 21.43845081 427.69928856 24.46156629 431 27.5 C436.22829984 32.30515214 436.22829984 32.30515214 441.5 37.0625 C442.0878125 37.58972656 442.675625 38.11695313 443.28125 38.66015625 C444.96798385 40.07769424 444.96798385 40.07769424 447.046875 40.95703125 C449.36109902 42.19282688 450.30429248 43.45643872 451.75 45.625 C452.17796875 46.25664063 452.6059375 46.88828125 453.046875 47.5390625 C453.36140625 48.02117188 453.6759375 48.50328125 454 49 C453.566875 49.54269531 453.13375 50.08539062 452.6875 50.64453125 C452.130625 51.35996094 451.57375 52.07539062 451 52.8125 C450.443125 53.52019531 449.88625 54.22789062 449.3125 54.95703125 C447.72974317 57.01595999 447.72974317 57.01595999 448 60 C447.443125 60.19980469 446.88625 60.39960937 446.3125 60.60546875 C443.08799123 62.54997826 441.20497468 65.3351252 439 68.3125 C433.86362116 75.04547352 428.32865473 81.24080439 422.51171875 87.38671875 C420.99864943 89.00144131 419.51176578 90.6366665 418.03125 92.28125 C397.26262811 115.30197361 372.67482555 134.03554947 346.04589844 149.78320312 C344.23038565 150.86297827 342.43037512 151.9687244 340.6328125 153.078125 C308.07661863 172.65960102 269.52982497 183.6796975 232 188 C231.19997559 188.09571289 230.39995117 188.19142578 229.57568359 188.29003906 C183.16876278 193.22149246 134.20319509 185.78510496 91.22265625 167.8125 C88.92481102 166.82833351 88.92481102 166.82833351 86 167 C86 166.34 86 165.68 86 165 C84.74316406 164.61972656 83.48632812 164.23945312 82.19140625 163.84765625 C76.4718992 161.93593979 71.25593577 159.256691 65.9375 156.4375 C64.92961426 155.90664795 63.92172852 155.3757959 62.88330078 154.82885742 C54.32729003 150.27159998 46.06795822 145.37042373 38 140 C37.4313623 139.62278809 36.86272461 139.24557617 36.27685547 138.85693359 C12.42507385 122.93043281 -10.29626933 103.77976955 -29 82 C-29.90691653 80.96819103 -30.81452184 79.93698723 -31.72265625 78.90625 C-37.10450746 72.76160978 -42.26796209 66.50749659 -47.125 59.9375 C-47.58616211 59.31866943 -48.04732422 58.69983887 -48.52246094 58.06225586 C-50.8708259 54.8325914 -52.7239947 51.79217304 -54 48 C-49.66907434 43.99738644 -45.33566899 39.9974751 -41 36 C-40.45069824 35.49339844 -39.90139648 34.98679687 -39.33544922 34.46484375 C-29.33588069 25.24865156 -19.09344074 16.34700541 -8.76123047 7.50732422 C-5.83931262 5.0066421 -2.91967973 2.50329453 0 0 Z " fill="#1A424F" transform="translate(312,686)"/>
<path d="M0 0 C0.99 0 1.98 0 3 0 C3.47308594 1.08796875 3.94617188 2.1759375 4.43359375 3.296875 C8.68716573 12.84261853 13.22657807 20.97181037 20 29 C20.72058594 29.85980469 21.44117188 30.71960938 22.18359375 31.60546875 C31.5527973 42.3775477 41.85285216 50.65851211 54 58 C53.43352712 62.13882436 52.75644806 66.21775969 51.9375 70.3125 C48.40369839 91.70270823 52.36182358 113.12927542 65 131 C76.23879866 144.91512621 76.23879866 144.91512621 92 152 C92 152.66 92 153.32 92 154 C115.09310109 164.38685333 139.76414157 166.4891424 163.8125 157.6875 C180.19975228 150.87459561 192.89878923 140.7559857 205 128 C205.53109375 128.40992188 206.0621875 128.81984375 206.609375 129.2421875 C207.31578125 129.78101563 208.0221875 130.31984375 208.75 130.875 C209.44609375 131.40867187 210.1421875 131.94234375 210.859375 132.4921875 C212.84722603 133.89238914 214.79843386 134.97855265 217 136 C217 136.66 217 137.32 217 138 C217.58845703 138.27384521 218.17691406 138.54769043 218.78320312 138.82983398 C220.92810674 139.96205018 222.60908578 141.17494077 224.46875 142.72265625 C225.11602051 143.25648926 225.76329102 143.79032227 226.43017578 144.34033203 C227.11321777 144.90864746 227.79625977 145.47696289 228.5 146.0625 C233.30667432 150.01716603 238.12741646 153.91385643 243.125 157.625 C247.68579743 161.01732866 252.23920292 164.41645652 256.75 167.875 C257.37148926 168.33986816 257.99297852 168.80473633 258.63330078 169.28369141 C260.14583838 170.45221763 261.58098284 171.71952594 263 173 C263 176.44023953 262.6780229 176.72114138 260.4375 179.109375 C259.61185547 179.99496094 259.61185547 179.99496094 258.76953125 180.8984375 C258.18558594 181.50945312 257.60164063 182.12046875 257 182.75 C256.44699219 183.34554687 255.89398437 183.94109375 255.32421875 184.5546875 C225.1526654 216.59895795 184.69196257 234.39975696 141 237 C139.83984375 237.0721875 138.6796875 237.144375 137.484375 237.21875 C96.73634484 238.39985232 55.83906774 222.55855977 26.0625 195 C16.96357018 186.34873326 9.32035057 176.97075216 2.69140625 166.30078125 C1.13933406 163.72585759 1.13933406 163.72585759 -2 163 C-1.67 162.34 -1.34 161.68 -1 161 C-2.15867134 158.43715072 -3.37439536 155.98216397 -4.6875 153.5 C-13 137.3474657 -13 137.3474657 -13 132 C-13.99 131.67 -14.98 131.34 -16 131 C-16.33 130.67 -16.66 130.34 -17 130 C-17 127 -17 127 -16 126 C-16.40720052 123.7816688 -16.8785044 121.57506765 -17.375 119.375 C-19.00787088 111.59100413 -19.79263363 103.9570815 -20 96 C-20.04084717 94.53675293 -20.04084717 94.53675293 -20.08251953 93.04394531 C-20.7992633 62.99480099 -17.22092624 25.83138936 0 0 Z " fill="#1A424F" transform="translate(394,529)"/>
<path d="M0 0 C20.42591937 0.26598745 39.99247838 8.65195709 54.4921875 23.05859375 C64.6929903 33.76748251 72.2370994 47.15248965 73.24609375 62.03515625 C73.90609375 62.36515625 74.56609375 62.69515625 75.24609375 63.03515625 C74.87669625 86.27216948 71.36533036 106.18197785 55.24609375 124.03515625 C54.39917969 124.98648438 54.39917969 124.98648438 53.53515625 125.95703125 C41.20212101 139.04278695 23.06670303 147.45960084 5.1015625 148.2734375 C-16.47166028 148.79221387 -35.70604206 143.25181592 -52.0703125 128.73046875 C-65.21009885 115.53330342 -73.94799669 97.80613308 -74.75390625 79.03515625 C-74.80546875 78.22175781 -74.85703125 77.40835938 -74.91015625 76.5703125 C-75.56578649 57.96680454 -68.58793986 39.75588526 -56.37890625 25.84765625 C-54.85444703 24.22712829 -53.3136531 22.621749 -51.75390625 21.03515625 C-51.13902344 20.40738281 -50.52414062 19.77960938 -49.890625 19.1328125 C-36.45450803 6.44474487 -18.22349533 0.17066749 0 0 Z " fill="#6DCAD1" transform="translate(511.75390625,130.96484375)"/>
<path d="M0 0 C1.15371094 0.11794922 2.30742188 0.23589844 3.49609375 0.35742188 C10.13704368 1.09572589 16.01415602 2.32895529 22.25 4.6875 C23.9114252 5.24358859 25.57425838 5.79548354 27.23828125 6.34375 C44.10381202 12.11229153 60.09487192 19.71533491 74.25 30.6875 C75.02730469 31.2753125 75.80460938 31.863125 76.60546875 32.46875 C87.44797913 40.88074533 97.30210412 50.29160438 106.25 60.6875 C107.08917969 61.5846875 107.08917969 61.5846875 107.9453125 62.5 C109.375 64.0625 109.375 64.0625 111.25 66.6875 C111.04939066 69.28748588 110.64142531 70.34704905 108.66210938 72.06860352 C107.63827148 72.68626587 107.63827148 72.68626587 106.59375 73.31640625 C105.44398682 74.02422241 105.44398682 74.02422241 104.27099609 74.74633789 C103.02310303 75.49065063 103.02310303 75.49065063 101.75 76.25 C100.00202407 77.32197132 98.25463945 78.39490738 96.5078125 79.46875 C95.62383789 80.00757813 94.73986328 80.54640625 93.82910156 81.1015625 C90.05402142 83.42292946 86.33758064 85.83036877 82.625 88.25 C81.24097028 89.14856822 79.85685547 90.04700541 78.47265625 90.9453125 C77.78574707 91.39165039 77.09883789 91.83798828 76.39111328 92.29785156 C74.13627226 93.7613128 71.87901543 95.22098418 69.62109375 96.6796875 C68.85812988 97.17267334 68.09516602 97.66565918 67.30908203 98.17358398 C65.85837929 99.11081804 64.40754252 100.04784468 62.95654297 100.98461914 C62.2967041 101.41121826 61.63686523 101.83781738 60.95703125 102.27734375 C60.32748535 102.68065918 59.69793945 103.08397461 59.04931641 103.49951172 C57.86970909 104.27834065 56.70903515 105.08680981 55.57177734 105.92626953 C51.83012902 108.66077621 51.83012902 108.66077621 49.21484375 108.78125 C46.2241891 107.11647206 44.10992591 104.67359974 41.8125 102.1875 C33.10343047 93.15237929 20.66828888 82.32970486 7.9453125 80.32421875 C5.85868487 80.26590642 5.85868487 80.26590642 3.25 80.6875 C3.25 80.0275 3.25 79.3675 3.25 78.6875 C-17.60914974 72.18435332 -38.93369302 73.75199157 -58.75 82.6875 C-60.01539551 83.42949512 -61.27470407 84.18198007 -62.52734375 84.9453125 C-63.59082031 85.52023437 -64.65429688 86.09515625 -65.75 86.6875 C-66.74 86.3575 -67.73 86.0275 -68.75 85.6875 C-69.41666667 84.35416667 -70.08333333 83.02083333 -70.75 81.6875 C-72.39429829 79.99876121 -74.06384218 78.33444485 -75.75 76.6875 C-76.45125 75.78 -77.1525 74.8725 -77.875 73.9375 C-81.81770664 69.14033681 -86.89733293 65.51103652 -91.75 61.6875 C-92.88555384 60.78532888 -94.02096678 59.88298039 -95.15625 58.98046875 C-102.59320543 53.08792898 -110.12926911 47.34023995 -117.75 41.6875 C-116.74660077 35.00309044 -109.81911331 31.23326522 -104.75390625 27.44921875 C-73.1109229 5.02414242 -38.64909292 -4.39890582 0 0 Z " fill="#1A424F" transform="translate(548.75,446.3125)"/>
<path d="M0 0 C0.33 0 0.66 0 1 0 C2.26046025 7.43671548 2.26046025 7.43671548 1.02734375 10.10351562 C-0.32620404 13.91969696 -0.35506393 17.58013308 -0.4140625 21.58203125 C-0.43342865 22.39621017 -0.4527948 23.2103891 -0.4727478 24.04924011 C-0.53228752 26.63688852 -0.57882583 29.22458203 -0.625 31.8125 C-0.6632034 33.57228449 -0.7022565 35.33205074 -0.7421875 37.09179688 C-0.83796782 41.39438234 -0.92209285 45.6970553 -1 50 C-1.33 50 -1.66 50 -2 50 C-3.36878578 44.04083239 -3.19120928 38.14943404 -3.1875 32.0625 C-3.18741943 30.85005615 -3.18733887 29.6376123 -3.18725586 28.38842773 C-3.12537291 18.68062072 -2.47313538 9.42465105 0 0 Z " fill="#0E222C" transform="translate(377,580)"/>
<path d="M0 0 C-0.66 0 -1.32 0 -2 0 C-2 0.66 -2 1.32 -2 2 C-4.22884145 2.95909551 -6.45805968 3.91729837 -8.6875 4.875 C-9.31333984 5.14441406 -9.93917969 5.41382813 -10.58398438 5.69140625 C-14.03842094 7.17446278 -17.50218321 8.62227484 -21 10 C-22.5625 7.6875 -22.5625 7.6875 -24 5 C-23.67 4.01 -23.34 3.02 -23 2 C-21.515 2.99 -21.515 2.99 -20 4 C-15.15448636 3.70350878 -10.45884576 2.33725626 -6.0625 0.3125 C-3 -1 -3 -1 0 0 Z " fill="#213B44" transform="translate(502,523)"/>
<path d="M0 0 C0 0.33 0 0.66 0 1 C-0.9286084 1.02505615 -1.8572168 1.0501123 -2.81396484 1.07592773 C-6.25435804 1.17097932 -9.69457713 1.27021707 -13.13476562 1.37231445 C-14.62462641 1.41566589 -16.11453695 1.45734084 -17.60449219 1.49731445 C-19.74429327 1.55501215 -21.88384385 1.61870755 -24.0234375 1.68359375 C-25.31169434 1.72025146 -26.59995117 1.75690918 -27.92724609 1.79467773 C-30.9127682 1.79530675 -30.9127682 1.79530675 -33 3 C-34.67654729 2.72057545 -36.34608154 2.39171753 -38 2 C-38 2.66 -38 3.32 -38 4 C-40.97 3.67 -43.94 3.34 -47 3 C-47 2.67 -47 2.34 -47 2 C-30.9904055 -0.31434353 -16.14464581 -1.81182398 0 0 Z " fill="#446F79" transform="translate(546,446)"/>
<path d="M0 0 C0.33 0 0.66 0 1 0 C1.81449712 3.87458298 2.62624263 7.7497375 3.4375 11.625 C3.66759766 12.71941406 3.89769531 13.81382812 4.13476562 14.94140625 C4.46831055 16.53662109 4.46831055 16.53662109 4.80859375 18.1640625 C5.01282959 19.13811035 5.21706543 20.1121582 5.42749023 21.11572266 C6.01365395 24.06878795 6.52008269 27.02798195 7 30 C6.67 29.34 6.34 28.68 6 28 C4.67696283 27.6278958 3.34262065 27.29369827 2 27 C1.67 26.67 1.34 26.34 1 26 C1 23 1 23 2 22 C1.690625 20.7625 1.38125 19.525 1.0625 18.25 C-0.39575366 12.19188579 -0.17230651 6.19346173 0 0 Z " fill="#1E343A" transform="translate(376,633)"/>
<path d="M0 0 C5.1869393 0.42322275 8.18958448 3.1377771 12.0625 6.3125 C12.67416016 6.79912109 13.28582031 7.28574219 13.91601562 7.78710938 C17.12812858 10.3672174 20.15333865 13.01136053 23 16 C17.32413666 15.31201656 12.60207917 12.95253398 9 8.5625 C8.34 7.716875 7.68 6.87125 7 6 C4.72793564 4.23668048 2.36596585 2.63797636 0 1 C0 0.67 0 0.34 0 0 Z " fill="#213D46" transform="translate(633,686)"/>
<path d="M0 0 C3.94311163 0.56071771 5.89439727 2.44218852 8.75 5.125 C12.58517641 8.6931345 16.47932923 12.13972294 20.50390625 15.4921875 C22 17 22 17 23 20 C18.76619809 18.31680558 15.86827008 15.27757414 12.625 12.1875 C11.51439127 11.13787096 10.40242003 10.08968164 9.2890625 9.04296875 C8.74797852 8.53427246 8.20689453 8.02557617 7.64941406 7.50146484 C6.00277761 6.00252846 4.31052061 4.58390386 2.5859375 3.17578125 C1.73257813 2.45777344 0.87921875 1.73976563 0 1 C0 0.67 0 0.34 0 0 Z " fill="#1F353E" transform="translate(735,709)"/>
<path d="M0 0 C5.72858491 5.54379185 11.57298662 11.35947993 16 18 C11.6914227 17.52126919 9.84188778 15.10624944 7 12 C6.38125 11.3503125 5.7625 10.700625 5.125 10.03125 C4.485625 9.3403125 3.84625 8.649375 3.1875 7.9375 C2.58292969 7.28652344 1.97835938 6.63554688 1.35546875 5.96484375 C0 4 0 4 0 0 Z " fill="#254349" transform="translate(409,553)"/>
<path d="M0 0 C0 0.33 0 0.66 0 1 C-1.65 1 -3.3 1 -5 1 C-5 1.66 -5 2.32 -5 3 C-16.55 2.67 -28.1 2.34 -40 2 C-40 1.67 -40 1.34 -40 1 C-35.58346769 0.82964545 -31.16675741 0.66440646 -26.75 0.5 C-24.89761719 0.42845703 -24.89761719 0.42845703 -23.0078125 0.35546875 C-15.33409832 0.07275296 -7.67879221 -0.06407893 0 0 Z " fill="#000309" transform="translate(539,800)"/>
<path d="M0 0 C0.66 0.33 1.32 0.66 2 1 C1.47792969 1.3403125 0.95585937 1.680625 0.41796875 2.03125 C-7.25312022 7.08261507 -14.66345422 12.47621378 -22 18 C-22.66 17.67 -23.32 17.34 -24 17 C-19.03679838 12.06945102 -13.51533238 8.22221674 -7.625 4.5 C-6.91085937 4.04254395 -6.19671875 3.58508789 -5.4609375 3.11376953 C-3.68039981 2.00900366 -1.84374389 0.99570608 0 0 Z " fill="#6ABFC5" transform="translate(416,320)"/>
<path d="M0 0 C0.99 0.33 1.98 0.66 3 1 C3.99 1 4.98 1 6 1 C2.42417245 4.16003365 -0.40949881 6.50808711 -5 8 C-6.6396875 8.556875 -6.6396875 8.556875 -8.3125 9.125 C-9.6428125 9.558125 -9.6428125 9.558125 -11 10 C-7.5103248 6.40768729 -4.03355127 2.98132051 0 0 Z " fill="#26414A" transform="translate(449,470)"/>
<path d="M0 0 C5.12524666 0.63315791 9.96530771 1.68160656 14.9375 3.0625 C15.96327148 3.3419043 15.96327148 3.3419043 17.00976562 3.62695312 C18.67420293 4.08089057 20.33725312 4.53990916 22 5 C22 5.33 22 5.66 22 6 C16.41872496 7.18368944 12.9394077 6.69881635 7.625 4.6875 C6.40039062 4.23761719 5.17578125 3.78773438 3.9140625 3.32421875 C1 2 1 2 0 0 Z " fill="#284049" transform="translate(488,686)"/>
<path d="M0 0 C7.92 3.96 7.92 3.96 16 8 C16 8.66 16 9.32 16 10 C11.49272353 9.39733215 8.1412037 7.63400206 4.1875 5.4375 C3.59001953 5.10814453 2.99253906 4.77878906 2.37695312 4.43945312 C0.91466002 3.63226733 -0.5431399 2.81695083 -2 2 C-1.34 1.34 -0.68 0.68 0 0 Z " fill="#213A42" transform="translate(404,771)"/>
<path d="M0 0 C0.66 0.33 1.32 0.66 2 1 C-1.96 5.29 -5.92 9.58 -10 14 C-11.32 13.67 -12.64 13.34 -14 13 C-9.38 8.71 -4.76 4.42 0 0 Z " fill="#26404A" transform="translate(300,696)"/>
<path d="M0 0 C-2.31 0.33 -4.62 0.66 -7 1 C-7 1.66 -7 2.32 -7 3 C-10.99795892 3.95619733 -14.70803922 4.1039592 -18.8125 4.0625 C-19.97394531 4.05347656 -21.13539063 4.04445313 -22.33203125 4.03515625 C-23.21246094 4.02355469 -24.09289062 4.01195312 -25 4 C-25 3.67 -25 3.34 -25 3 C-21.58604938 2.29852167 -18.16853031 1.61627764 -14.75 0.9375 C-13.78191406 0.73833984 -12.81382812 0.53917969 -11.81640625 0.33398438 C-10.88183594 0.15029297 -9.94726562 -0.03339844 -8.984375 -0.22265625 C-8.12553711 -0.39547119 -7.26669922 -0.56828613 -6.38183594 -0.74633789 C-3.94790649 -1.00554788 -2.31101537 -0.75084609 0 0 Z " fill="#182D36" transform="translate(577,867)"/>
<path d="M0 0 C3 0 3 0 4.6484375 1.5390625 C5.21820313 2.22742188 5.78796875 2.91578125 6.375 3.625 C6.98214844 4.34945312 7.58929688 5.07390625 8.21484375 5.8203125 C9.09849609 6.89925781 9.09849609 6.89925781 10 8 C10.97891088 9.1668813 11.958041 10.33357874 12.9375 11.5 C13.618125 12.325 14.29875 13.15 15 14 C9.26163062 13.1498712 6.03912778 9.21299012 2.6875 4.8125 C0 1.16372796 0 1.16372796 0 0 Z " fill="#263D43" transform="translate(457,661)"/>
<path d="M0 0 C2.12059704 0.73742566 4.23160364 1.48148973 6.328125 2.28515625 C7.03453125 2.55457031 7.7409375 2.82398438 8.46875 3.1015625 C8.99984375 3.30652344 9.5309375 3.51148438 10.078125 3.72265625 C10.078125 4.38265625 10.078125 5.04265625 10.078125 5.72265625 C10.738125 6.05265625 11.398125 6.38265625 12.078125 6.72265625 C6.14948783 5.55614199 0.69014106 3.96746267 -4.921875 1.72265625 C-1.921875 -0.27734375 -1.921875 -0.27734375 0 0 Z " fill="#2B4750" transform="translate(471.921875,752.27734375)"/>
<path d="M0 0 C4.03556631 0.52821549 6.17712748 1.59326602 9.1875 4.3125 C9.86167969 4.90675781 10.53585937 5.50101562 11.23046875 6.11328125 C12.98945379 7.98875536 13.98885967 9.65104323 15 12 C11.26427172 10.37228982 8.38341608 8.01966695 5.25 5.4375 C4.26515625 4.63183594 3.2803125 3.82617188 2.265625 2.99609375 C1.51796875 2.33738281 0.7703125 1.67867188 0 1 C0 0.67 0 0.34 0 0 Z " fill="#2A4750" transform="translate(447,499)"/>
<path d="M0 0 C0.33 0 0.66 0 1 0 C1.91824599 5.41765132 2.04342449 7.89143877 0 13 C-0.28121242 15.26296407 -0.48704889 17.53630662 -0.625 19.8125 C-0.69976562 20.97394531 -0.77453125 22.13539063 -0.8515625 23.33203125 C-0.90054687 24.21246094 -0.94953125 25.09289062 -1 26 C-1.33 26 -1.66 26 -2 26 C-2.3690205 8.14350797 -2.3690205 8.14350797 0 0 Z " fill="#081720" transform="translate(377,580)"/>
<path d="M0 0 C-0.99 0.495 -0.99 0.495 -2 1 C-1.67 1.66 -1.34 2.32 -1 3 C-2.89385437 3.50744423 -4.79018666 4.00564574 -6.6875 4.5 C-7.74324219 4.7784375 -8.79898438 5.056875 -9.88671875 5.34375 C-12.71142672 5.9391715 -15.12836708 6.12786492 -18 6 C-15.35261084 4.5393715 -14.10551666 4 -11 4 C-11 3.34 -11 2.68 -11 2 C-9.68 2 -8.36 2 -7 2 C-7 1.34 -7 0.68 -7 0 C-3.98968256 -0.93423645 -3.13349732 -1.04449911 0 0 Z " fill="#2F5963" transform="translate(588,863)"/>
<path d="M0 0 C3.35829104 1.43714007 5.39970698 3.20977399 7.8125 5.9375 C8.43769531 6.62714844 9.06289063 7.31679688 9.70703125 8.02734375 C10.34705078 9.00380859 10.34705078 9.00380859 11 10 C10.67 10.99 10.34 11.98 10 13 C8.32722165 11.21371169 6.66175557 9.4214925 5 7.625 C4.28457031 6.86316406 4.28457031 6.86316406 3.5546875 6.0859375 C0 2.2265625 0 2.2265625 0 0 Z " fill="#213540" transform="translate(331,711)"/>
<path d="M0 0 C0.66 0 1.32 0 2 0 C2 0.66 2 1.32 2 2 C2.99 2.33 3.98 2.66 5 3 C4.67 3.99 4.34 4.98 4 6 C3.443125 5.731875 2.88625 5.46375 2.3125 5.1875 C1.1678125 5.0946875 1.1678125 5.0946875 0 5 C-2.77122275 7.35426499 -2.77122275 7.35426499 -5 10 C-5 6.65580848 -4.52480606 5.93159679 -2.625 3.3125 C-2.18414063 2.68988281 -1.74328125 2.06726563 -1.2890625 1.42578125 C-0.86367188 0.95527344 -0.43828125 0.48476563 0 0 Z " fill="#2B444B" transform="translate(711,686)"/>
<path d="M0 0 C3.62840973 0.61583101 5.86120883 2.13760292 8.75 4.375 C9.54921875 4.98085938 10.3484375 5.58671875 11.171875 6.2109375 C11.77515625 6.80132813 12.3784375 7.39171875 13 8 C13 8.99 13 9.98 13 11 C10.83040701 9.35790421 8.66427468 7.71157832 6.5 6.0625 C5.87996094 5.59392578 5.25992188 5.12535156 4.62109375 4.64257812 C3.06233214 3.45209536 1.52890836 2.22858708 0 1 C0 0.67 0 0.34 0 0 Z " fill="#1D333C" transform="translate(618,674)"/>
<path d="M0 0 C4.6460097 2.80921516 7.86216434 5.53096133 11 10 C10.67 10.99 10.34 11.98 10 13 C8.32722165 11.21371169 6.66175557 9.4214925 5 7.625 C4.28457031 6.86316406 4.28457031 6.86316406 3.5546875 6.0859375 C0 2.2265625 0 2.2265625 0 0 Z " fill="#1D333A" transform="translate(646,500)"/>
<path d="M0 0 C0.66 1.32 1.32 2.64 2 4 C2.66 4 3.32 4 4 4 C5.32 6.97 6.64 9.94 8 13 C7.34 13.66 6.68 14.32 6 15 C4.99267601 13.06629769 3.99436712 11.12789694 3 9.1875 C2.443125 8.10855469 1.88625 7.02960937 1.3125 5.91796875 C0 3 0 3 0 0 Z " fill="#2C4C54" transform="translate(384,669)"/>
<path d="M0 0 C1.44010481 0.25662245 2.8770687 0.53090821 4.3125 0.8125 C5.11300781 0.96332031 5.91351562 1.11414063 6.73828125 1.26953125 C9.23445587 2.07572236 10.32422106 3.02052002 12 5 C9.44640395 6.27679803 8.7090348 5.69660895 6 5 C4.33376361 4.96213099 2.66602403 4.95372155 1 5 C1.33 3.68 1.66 2.36 2 1 C1.34 0.67 0.68 0.34 0 0 Z " fill="#1D3037" transform="translate(551,522)"/>
<path d="M0 0 C0.33 0 0.66 0 1 0 C1 10.23 1 20.46 1 31 C0.67 31 0.34 31 0 31 C0 20.77 0 10.54 0 0 Z " fill="#ABABAB" transform="translate(0,347)"/>
<path d="M0 0 C0.58652344 0.20109375 1.17304687 0.4021875 1.77734375 0.609375 C-0.1751081 1.80652055 -2.13480622 2.99185574 -4.09765625 4.171875 C-5.18820312 4.83316406 -6.27875 5.49445312 -7.40234375 6.17578125 C-8.79839844 6.88541016 -8.79839844 6.88541016 -10.22265625 7.609375 C-10.88265625 7.279375 -11.54265625 6.949375 -12.22265625 6.609375 C-9.36188303 3.24375944 -4.54936583 -0.79953705 0 0 Z " fill="#28444B" transform="translate(661.22265625,832.390625)"/>
<path d="M0 0 C3.10742423 1.46818668 5.90471739 3.20025 8.75 5.125 C9.94882812 5.93324219 9.94882812 5.93324219 11.171875 6.7578125 C11.77515625 7.16773438 12.3784375 7.57765625 13 8 C10.61653863 8.85573613 9.49514852 9.22877115 7.1484375 8.14453125 C1.23408423 3.70225269 1.23408423 3.70225269 0 0 Z " fill="#1C343B" transform="translate(433,732)"/>
<path d="M0 0 C3.60571107 0.59283087 5.54429438 2.02741777 8.25 4.4375 C8.95640625 5.05496094 9.6628125 5.67242188 10.390625 6.30859375 C12 8 12 8 12 10 C8.78727751 8.56006357 6.3793336 6.76981628 3.75 4.4375 C3.04359375 3.81746094 2.3371875 3.19742188 1.609375 2.55859375 C1.07828125 2.04425781 0.5471875 1.52992188 0 1 C0 0.67 0 0.34 0 0 Z " fill="#1E363E" transform="translate(717,693)"/>
<path d="M0 0 C-2.53036888 3.79555331 -4.78074764 4.4455386 -9 6 C-9.99 6 -10.98 6 -12 6 C-6 -0.15789474 -6 -0.15789474 0 0 Z " fill="#1C3841" transform="translate(586,674)"/>
<path d="M0 0 C0 0.66 0 1.32 0 2 C-1.43429001 2.67354499 -2.87257057 3.33859701 -4.3125 4 C-5.51326172 4.556875 -5.51326172 4.556875 -6.73828125 5.125 C-9 6 -9 6 -12 6 C-12 5.34 -12 4.68 -12 4 C-10.56570999 3.32645501 -9.12742943 2.66140299 -7.6875 2 C-6.88699219 1.62875 -6.08648438 1.2575 -5.26171875 0.875 C-3 0 -3 0 0 0 Z " fill="#223B43" transform="translate(626,850)"/>
<path d="M0 0 C-0.99 0.495 -0.99 0.495 -2 1 C-1.67 1.66 -1.34 2.32 -1 3 C-5.31196609 3.94324258 -9.62065881 4.48041715 -14 5 C-9.94779194 1.59614523 -5.27662976 -1.75887659 0 0 Z " fill="#224B58" transform="translate(632,847)"/>
<path d="M0 0 C3.29963329 1.09987776 3.61064772 1.45586748 5.25 4.3125 C5.60578125 4.90675781 5.9615625 5.50101563 6.328125 6.11328125 C7.15994803 8.4491564 6.7945524 9.69274206 6 12 C5.18071114 10.75443908 4.36984814 9.50333365 3.5625 8.25 C2.88380859 7.20585938 2.88380859 7.20585938 2.19140625 6.140625 C1.0391991 4.07042986 0.45323018 2.31303676 0 0 Z " fill="#1D323A" transform="translate(449,647)"/>
<path d="M0 0 C0.33 0 0.66 0 1 0 C1 8.91 1 17.82 1 27 C0.67 27 0.34 27 0 27 C0 18.09 0 9.18 0 0 Z " fill="#ADADAD" transform="translate(0,407)"/>
<path d="M0 0 C-2.41407698 1.60938465 -4.34044437 2.65490738 -7 3.6875 C-8.0209375 4.09548828 -8.0209375 4.09548828 -9.0625 4.51171875 C-11 5 -11 5 -14 4 C-13.34 4 -12.68 4 -12 4 C-12 3.34 -12 2.68 -12 2 C-7.82262526 0.40861915 -4.46839215 -0.21278058 0 0 Z " fill="#2D4752" transform="translate(614,856)"/>
<path d="M0 0 C3.94139078 1.66751148 6.7892812 4.22710649 10 7 C9.34 7.66 8.68 8.32 8 9 C6.66079162 7.88200014 5.32877444 6.75538103 4 5.625 C2.88625 4.68527344 2.88625 4.68527344 1.75 3.7265625 C1.1725 3.15679688 0.595 2.58703125 0 2 C0 1.34 0 0.68 0 0 Z " fill="#213941" transform="translate(308,791)"/>
<path d="M0 0 C1.93719378 -0.05406122 3.87481921 -0.09282025 5.8125 -0.125 C6.89144531 -0.14820313 7.97039062 -0.17140625 9.08203125 -0.1953125 C12 0 12 0 15 2 C13.0085944 2.38133299 11.00720923 2.71325582 9 3 C8.67 2.67 8.34 2.34 8 2 C6.5459375 2.0309375 6.5459375 2.0309375 5.0625 2.0625 C2 2 2 2 0 0 Z " fill="#102A33" transform="translate(445,865)"/>
<path d="M0 0 C3.46464111 0.27173656 4.68165104 0.93690865 7.1875 3.25 C6.589375 3.394375 5.99125 3.53875 5.375 3.6875 C3.62599596 4.1372439 1.90072977 4.67892341 0.1875 5.25 C0.1875 4.59 0.1875 3.93 0.1875 3.25 C-1.1325 2.59 -2.4525 1.93 -3.8125 1.25 C-2.8125 0.25 -2.8125 0.25 0 0 Z " fill="#254A56" transform="translate(397.8125,847.75)"/>
<path d="M0 0 C4.21878192 -0.19622241 7.17010894 0.19769832 11 2 C11 2.66 11 3.32 11 4 C11.66 4.33 12.32 4.66 13 5 C8.15340923 4.40895235 4.39251833 3.02055843 0 1 C0 0.67 0 0.34 0 0 Z " fill="#1D3239" transform="translate(424,783)"/>
<path d="M0 0 C1.93681161 -0.08107583 3.8745934 -0.13922475 5.8125 -0.1875 C6.89144531 -0.22230469 7.97039062 -0.25710938 9.08203125 -0.29296875 C12 0 12 0 13.88671875 1.51171875 C14.25410156 2.00285156 14.62148438 2.49398437 15 3 C13.24929483 2.88529863 11.49942464 2.75780972 9.75 2.625 C8.77546875 2.55539062 7.8009375 2.48578125 6.796875 2.4140625 C4.10366811 2.01534751 2.33036721 1.36492937 0 0 Z " fill="#36555E" transform="translate(493,761)"/>
<path d="M0 0 C4.39750672 0.50740462 6.86948922 3.08293314 10 6 C10 6.66 10 7.32 10 8 C6.05205855 6.32971708 3.18203882 3.8204435 0 1 C0 0.67 0 0.34 0 0 Z " fill="#1C323A" transform="translate(425,573)"/>
<path d="M0 0 C0.66 0.33 1.32 0.66 2 1 C-0.25740623 3.33524782 -2.2805761 5.18705073 -5 7 C-6.32 6.67 -7.64 6.34 -9 6 C-6.03 4.02 -3.06 2.04 0 0 Z " fill="#1F343D" transform="translate(622,537)"/>
<path d="M0 0 C0.886875 0.12375 1.77375 0.2475 2.6875 0.375 C-0.27533313 2.76172669 -3.25520509 5.1103371 -6.3125 7.375 C-6.9725 7.045 -7.6325 6.715 -8.3125 6.375 C-4.12788462 0.46730769 -4.12788462 0.46730769 0 0 Z " fill="#27434C" transform="translate(637.3125,527.625)"/>
<path d="M0 0 C-0.66 0 -1.32 0 -2 0 C-2 0.66 -2 1.32 -2 2 C-4.88211302 2.96070434 -6.69850044 3.10581883 -9.6875 3.0625 C-10.89986328 3.04896484 -10.89986328 3.04896484 -12.13671875 3.03515625 C-13.05904297 3.01775391 -13.05904297 3.01775391 -14 3 C-5.02487136 -1.67495712 -5.02487136 -1.67495712 0 0 Z " fill="#2E4B53" transform="translate(557,689)"/>
<path d="M0 0 C3.65316671 1.24976756 4.78065836 1.67098753 7 5 C6.67 5.66 6.34 6.32 6 7 C3.5625 6.3125 3.5625 6.3125 1 5 C0.1875 2.375 0.1875 2.375 0 0 Z " fill="#235059" transform="translate(616,473)"/>
<path d="M0 0 C3.46941546 0.45822468 6.67395049 0.89131683 10 2 C10.33 2.99 10.66 3.98 11 5 C6.87248551 4.39301257 3.6678852 2.96189209 0 1 C0 0.67 0 0.34 0 0 Z " fill="#1B3A42" transform="translate(583,457)"/>
<path d="M0 0 C-2.73704754 2.73704754 -5.26044774 3.16182449 -9 4 C-11.4375 3.625 -11.4375 3.625 -13 3 C-12.01 3 -11.02 3 -10 3 C-10 2.34 -10 1.68 -10 1 C-6.52674819 -0.1577506 -3.63932552 -0.06866652 0 0 Z " fill="#182C33" transform="translate(584,790)"/>
<path d="M0 0 C0.598125 0.226875 1.19625 0.45375 1.8125 0.6875 C-1.06837546 3.08822955 -3.75154834 5.16041037 -7.1875 6.6875 C-3.9375 -0.5625 -3.9375 -0.5625 0 0 Z " fill="#1D343C" transform="translate(593.1875,665.3125)"/>
<path d="M0 0 C6.4 0.49230769 6.4 0.49230769 9.4375 3.0625 C10.2109375 4.0215625 10.2109375 4.0215625 11 5 C7.80389448 5 6.58282374 4.45328458 3.8125 3 C3.09707031 2.62875 2.38164063 2.2575 1.64453125 1.875 C1.10183594 1.58625 0.55914063 1.2975 0 1 C0 0.67 0 0.34 0 0 Z " fill="#28454D" transform="translate(565,529)"/>
<path d="M0 0 C0.33 0.66 0.66 1.32 1 2 C-1.31 1.67 -3.62 1.34 -6 1 C-6 1.66 -6 2.32 -6 3 C-8.97 2.67 -11.94 2.34 -15 2 C-15 1.67 -15 1.34 -15 1 C-10.03926578 -0.32286246 -5.08888488 -0.08893197 0 0 Z " fill="#335A62" transform="translate(514,447)"/>
<path d="M0 0 C-0.66 0 -1.32 0 -2 0 C-2 0.66 -2 1.32 -2 2 C-4.75 3.125 -4.75 3.125 -8 4 C-10.203125 3.0546875 -10.203125 3.0546875 -12 2 C-10.56656 1.46809459 -9.12804633 0.94984742 -7.6875 0.4375 C-6.48673828 0.00244141 -6.48673828 0.00244141 -5.26171875 -0.44140625 C-3 -1 -3 -1 0 0 Z " fill="#2E4E55" transform="translate(592,787)"/>
<path d="M0 0 C0.66 0.33 1.32 0.66 2 1 C-1.44615385 5.8 -1.44615385 5.8 -4.25 6.8125 C-5.11625 6.9053125 -5.11625 6.9053125 -6 7 C-6.33 6.01 -6.66 5.02 -7 4 C-1.7265625 0.77734375 -1.7265625 0.77734375 0 0 Z " fill="#284751" transform="translate(623,770)"/>
<path d="M0 0 C0.66 0 1.32 0 2 0 C0.44499019 3.81684226 -2.03595495 6.19195732 -5 9 C-5.66 8.67 -6.32 8.34 -7 8 C-5.88200014 6.66079162 -4.75538103 5.32877444 -3.625 4 C-2.68527344 2.88625 -2.68527344 2.88625 -1.7265625 1.75 C-1.15679688 1.1725 -0.58703125 0.595 0 0 Z " fill="#142B35" transform="translate(667,738)"/>
<path d="M0 0 C0 0.66 0 1.32 0 2 C0.99 2.33 1.98 2.66 3 3 C1.39504433 2.88557539 -0.20898119 2.75805306 -1.8125 2.625 C-2.70582031 2.55539062 -3.59914063 2.48578125 -4.51953125 2.4140625 C-7 2 -7 2 -10 0 C-2.25 -1.125 -2.25 -1.125 0 0 Z " fill="#14272E" transform="translate(563,449)"/>
<path d="M0 0 C-1.28524261 0.86380259 -2.57842419 1.71580369 -3.875 2.5625 C-4.59429688 3.03816406 -5.31359375 3.51382813 -6.0546875 4.00390625 C-6.69664062 4.33261719 -7.33859375 4.66132812 -8 5 C-8.66 4.67 -9.32 4.34 -10 4 C-4.75 -1.425 -4.75 -1.425 0 0 Z " fill="#1D353C" transform="translate(634,767)"/>
<path d="M0 0 C0.99 0.33 1.98 0.66 3 1 C0.69 3.31 -1.62 5.62 -4 8 C-4.66 7.67 -5.32 7.34 -6 7 C-4.02 4.69 -2.04 2.38 0 0 Z " fill="#152A32" transform="translate(267,726)"/>
<path d="M0 0 C2.64752004 2.57784846 4.94432065 4.91648098 7 8 C4.24542282 7.62005832 3.17979426 7.1926367 1.25 5.125 C0 3 0 3 0 0 Z " fill="#1F363F" transform="translate(410,710)"/>
<path d="M0 0 C1.32 0.66 2.64 1.32 4 2 C3 4 3 4 1.0625 4.75 C0.381875 4.8325 -0.29875 4.915 -1 5 C-1.66 4.34 -2.32 3.68 -3 3 C-2.01 2.01 -1.02 1.02 0 0 Z " fill="#2A5660" transform="translate(312,686)"/>
<path d="M0 0 C0.66 0.33 1.32 0.66 2 1 C1.2884375 1.5878125 1.2884375 1.5878125 0.5625 2.1875 C-1.35179633 4.40808374 -1.61266988 6.13375709 -2 9 C-2.99 8.67 -3.98 8.34 -5 8 C-4.45773019 4.20411134 -2.79872437 2.52788007 0 0 Z " fill="#34646C" transform="translate(436,480)"/>
<path d="M0 0 C0.33 0 0.66 0 1 0 C1 6.93 1 13.86 1 21 C0.67 21 0.34 21 0 21 C0 14.07 0 7.14 0 0 Z " fill="#A7A7A7" transform="translate(0,483)"/>
<path d="M0 0 C3.99500618 1.3697164 6.80009492 3.25722422 10 6 C6.38238619 5.67112602 4.44334967 5.37334709 1.625 3 C0 1 0 1 0 0 Z " fill="#1D333B" transform="translate(357,828)"/>
<path d="M0 0 C3.96 0 7.92 0 12 0 C12 0.33 12 0.66 12 1 C10.35 1 8.7 1 7 1 C7 1.66 7 2.32 7 3 C4.69 2.34 2.38 1.68 0 1 C0 0.67 0 0.34 0 0 Z " fill="#0C1E26" transform="translate(527,800)"/>
<path d="M0 0 C2.97 0 5.94 0 9 0 C5.96474514 2.02350324 4.80573798 2.32124018 1.3125 2.625 C0.50425781 2.69976563 -0.30398438 2.77453125 -1.13671875 2.8515625 C-1.75160156 2.90054688 -2.36648438 2.94953125 -3 3 C-2.01 2.67 -1.02 2.34 0 2 C0 1.34 0 0.68 0 0 Z " fill="#152830" transform="translate(558,795)"/>
<path d="M0 0 C8.03571429 -0.40178571 8.03571429 -0.40178571 12 3 C10.37419034 2.88601335 8.74932843 2.75844341 7.125 2.625 C6.22007812 2.55539062 5.31515625 2.48578125 4.3828125 2.4140625 C2 2 2 2 0 0 Z " fill="#162A32" transform="translate(457,794)"/>
<path d="M0 0 C0 3 0 3 -2.5 5.6875 C-3.325 6.450625 -4.15 7.21375 -5 8 C-5.33 7.01 -5.66 6.02 -6 5 C-4.02 3.35 -2.04 1.7 0 0 Z " fill="#1A313A" transform="translate(685,721)"/>
<path d="M0 0 C0.99 0.33 1.98 0.66 3 1 C3.99 1 4.98 1 6 1 C3.03 3.475 3.03 3.475 0 6 C-0.66 5.67 -1.32 5.34 -2 5 C-1.125 1.125 -1.125 1.125 0 0 Z " fill="#274C5C" transform="translate(449,470)"/>
<path d="M0 0 C4.6875 3.515625 4.6875 3.515625 6 5 C6 6.32 6 7.64 6 9 C4.68 8.34 3.36 7.68 2 7 C2 6.01 2 5.02 2 4 C1.05021103 1.84971696 1.05021103 1.84971696 0 0 Z " fill="#254A5A" transform="translate(418,717)"/>
<path d="M0 0 C0.33 0 0.66 0 1 0 C1 6.27 1 12.54 1 19 C0.67 19 0.34 19 0 19 C0 12.73 0 6.46 0 0 Z " fill="#B4B4B4" transform="translate(0,631)"/>
<path d="M0 0 C0.33 0 0.66 0 1 0 C1 6.27 1 12.54 1 19 C0.67 19 0.34 19 0 19 C0 12.73 0 6.46 0 0 Z " fill="#979797" transform="translate(0,463)"/>
<path d="M0 0 C3.77545388 1.09068668 6.47043472 1.9083091 9 5 C3.48387097 4.38709677 3.48387097 4.38709677 1.125 2.5 C0 1 0 1 0 0 Z " fill="#2D4B53" transform="translate(593,460)"/>
<path d="M0 0 C0.66 0.33 1.32 0.66 2 1 C0.02579865 3.52259061 -0.96745642 3.9929808 -4.1875 4.6875 C-5.5796875 4.8421875 -5.5796875 4.8421875 -7 5 C-4.88437775 2.67281553 -2.94982021 1.14186589 0 0 Z " fill="#2B525A" transform="translate(466,460)"/>
<path d="M0 0 C0.33 0 0.66 0 1 0 C1 5.94 1 11.88 1 18 C0.67 18 0.34 18 0 18 C0 12.06 0 6.12 0 0 Z " fill="#C9C2C2" transform="translate(0,1006)"/>
<path d="M0 0 C1.32 0.33 2.64 0.66 4 1 C1.03 3.475 1.03 3.475 -2 6 C-2.66 5.67 -3.32 5.34 -4 5 C-2.68 3.35 -1.36 1.7 0 0 Z " fill="#173039" transform="translate(650,752)"/>
<path d="M0 0 C0.33 1.32 0.66 2.64 1 4 C-0.65 5.32 -2.3 6.64 -4 8 C-4 4.09161134 -2.49432124 2.88405893 0 0 Z " fill="#264249" transform="translate(700,701)"/>
<path d="M0 0 C6.625 0.75 6.625 0.75 10 3 C8.375 3.6875 8.375 3.6875 6 4 C2.75 2.5625 2.75 2.5625 0 1 C0 0.67 0 0.34 0 0 Z " fill="#223A43" transform="translate(488,686)"/>
<path d="M0 0 C3.37462715 0.54723683 5.08235 1.0549 8 3 C7.67 3.99 7.34 4.98 7 6 C5.83054208 5.19152271 4.66449539 4.37810888 3.5 3.5625 C2.8503125 3.11003906 2.200625 2.65757812 1.53125 2.19140625 C1.0259375 1.79824219 0.520625 1.40507813 0 1 C0 0.67 0 0.34 0 0 Z " fill="#1C303A" transform="translate(633,686)"/>
<path d="M0 0 C0.99 0 1.98 0 3 0 C2.67 1.32 2.34 2.64 2 4 C0.68 4.33 -0.64 4.66 -2 5 C-1.125 1.125 -1.125 1.125 0 0 Z " fill="#1B353D" transform="translate(597,659)"/>
<path d="M0 0 C2.32472205 2.85306797 3.7508258 5.54074837 5 9 C2 8 2 8 0.25 5.0625 C-0.1625 4.051875 -0.575 3.04125 -1 2 C-0.67 1.34 -0.34 0.68 0 0 Z " fill="#2C4652" transform="translate(401,540)"/>
<path d="M0 0 C3.36591866 1.44253657 5.51047079 3.33264727 8 6 C5.6875 5.8125 5.6875 5.8125 3 5 C1.1875 2.4375 1.1875 2.4375 0 0 Z " fill="#1D303C" transform="translate(578,535)"/>
<path d="M0 0 C2.97 1.98 2.97 1.98 6 4 C3.39417629 4.93065133 2.35801776 5.14917407 -0.25 4.0625 C-0.8275 3.711875 -1.405 3.36125 -2 3 C-1.34 2.67 -0.68 2.34 0 2 C0 1.34 0 0.68 0 0 Z " fill="#224D56" transform="translate(625,479)"/>
<path d="M0 0 C2.3125 0.1875 2.3125 0.1875 5 1 C6.8125 3.5625 6.8125 3.5625 8 6 C4.63408134 4.55746343 2.48952921 2.66735273 0 0 Z " fill="#294651" transform="translate(336,815)"/>
<path d="M0 0 C2.64 1.65 5.28 3.3 8 5 C4 6 4 6 1.75 4.75 C1.1725 4.1725 0.595 3.595 0 3 C0 2.01 0 1.02 0 0 Z " fill="#1F353C" transform="translate(330,809)"/>
<path d="M0 0 C2.04119788 1.61594832 4.04072937 3.2856382 6 5 C6 5.66 6 6.32 6 7 C3.53199953 5.84826645 1.95216435 4.95216435 0 3 C0 2.01 0 1.02 0 0 Z " fill="#1B3038" transform="translate(285,767)"/>
<path d="M0 0 C2.64 0 5.28 0 8 0 C8 0.66 8 1.32 8 2 C6.02 2.33 4.04 2.66 2 3 C1.34 2.01 0.68 1.02 0 0 Z " fill="#29485F" transform="translate(510,692)"/>
<path d="M0 0 C1.8125 0.1875 1.8125 0.1875 4 1 C5.75 3.5625 5.75 3.5625 7 6 C4.50638429 4.79618552 2.31856917 3.54571278 0 2 C0 1.34 0 0.68 0 0 Z " fill="#1A3238" transform="translate(602,661)"/>
<path d="M0 0 C0 0.33 0 0.66 0 1 C-3.63 1.66 -7.26 2.32 -11 3 C-10.34 2.67 -9.68 2.34 -9 2 C-9 1.34 -9 0.68 -9 0 C-5.52176885 -1.15941038 -3.54104422 -0.70820884 0 0 Z " fill="#36555F" transform="translate(511,521)"/>
<path d="M0 0 C3.36591866 1.44253657 5.51047079 3.33264727 8 6 C5.6875 5.8125 5.6875 5.8125 3 5 C1.1875 2.4375 1.1875 2.4375 0 0 Z " fill="#172B34" transform="translate(436,489)"/>
<path d="M0 0 C0.33 0 0.66 0 1 0 C1 5.61 1 11.22 1 17 C0.67 17 0.34 17 0 17 C0 11.39 0 5.78 0 0 Z " fill="#A8A8A8" transform="translate(0,303)"/>
<path d="M0 0 C0.33 0 0.66 0 1 0 C1 4.95 1 9.9 1 15 C0.67 15 0.34 15 0 15 C0 10.05 0 5.1 0 0 Z " fill="#B2B2B2" transform="translate(0,383)"/>
<path d="M0 0 C0.33 0 0.66 0 1 0 C1 4.62 1 9.24 1 14 C0.67 14 0.34 14 0 14 C0 9.38 0 4.76 0 0 Z " fill="#B2B6B2" transform="translate(0,840)"/>
<path d="M0 0 C0.33 0 0.66 0 1 0 C1 4.29 1 8.58 1 13 C0.67 13 0.34 13 0 13 C0 8.71 0 4.42 0 0 Z " fill="#9C9C9C" transform="translate(0,723)"/>
<path d="M0 0 C0.33 0 0.66 0 1 0 C1 3.63 1 7.26 1 11 C0.67 11 0.34 11 0 11 C0 7.37 0 3.74 0 0 Z " fill="#BDBDBD" transform="translate(0,815)"/>
<path d="M0 0 C0.33 0 0.66 0 1 0 C1 3.63 1 7.26 1 11 C0.67 11 0.34 11 0 11 C0 7.37 0 3.74 0 0 Z " fill="#B9B9B9" transform="translate(0,743)"/>
<path d="M0 0 C0.33 0 0.66 0 1 0 C1 3.63 1 7.26 1 11 C0.67 11 0.34 11 0 11 C0 7.37 0 3.74 0 0 Z " fill="#B3B3B3" transform="translate(0,707)"/>
<path d="M0 0 C0.33 0 0.66 0 1 0 C1 3.63 1 7.26 1 11 C0.67 11 0.34 11 0 11 C0 7.37 0 3.74 0 0 Z " fill="#B1B1B1" transform="translate(0,515)"/>
<path d="M0 0 C0.33 0 0.66 0 1 0 C1 2.97 1 5.94 1 9 C0.67 9 0.34 9 0 9 C0 6.03 0 3.06 0 0 Z " fill="#BDBDBD" transform="translate(0,919)"/>
<path d="M0 0 C0.33 0 0.66 0 1 0 C1 2.97 1 5.94 1 9 C0.67 9 0.34 9 0 9 C0 6.03 0 3.06 0 0 Z " fill="#B1B1B1" transform="translate(0,879)"/>
<path d="M0 0 C0.33 0 0.66 0 1 0 C1 2.97 1 5.94 1 9 C0.67 9 0.34 9 0 9 C0 6.03 0 3.06 0 0 Z " fill="#AAAAAA" transform="translate(0,447)"/>
<path d="M0 0 C0.33 0 0.66 0 1 0 C1 2.97 1 5.94 1 9 C0.67 9 0.34 9 0 9 C0 6.03 0 3.06 0 0 Z " fill="#9C9C9C" transform="translate(0,337)"/>
<path d="M0 0 C0.33 0 0.66 0 1 0 C1 2.97 1 5.94 1 9 C0.67 9 0.34 9 0 9 C0 6.03 0 3.06 0 0 Z " fill="#B1B1B1" transform="translate(0,327)"/>
<path d="M0 0 C0.33 0 0.66 0 1 0 C1 2.97 1 5.94 1 9 C0.67 9 0.34 9 0 9 C0 6.03 0 3.06 0 0 Z " fill="#B6B6B6" transform="translate(0,271)"/>
<path d="M0 0 C0.33 0 0.66 0 1 0 C1 2.64 1 5.28 1 8 C0.67 8 0.34 8 0 8 C0 5.36 0 2.72 0 0 Z " fill="#A7A7A7" transform="translate(0,952)"/>
<path d="M0 0 C0.33 0 0.66 0 1 0 C1 2.31 1 4.62 1 7 C0.67 7 0.34 7 0 7 C0 4.69 0 2.38 0 0 Z " fill="#CECECE" transform="translate(0,871)"/>
<path d="M0 0 C0.33 0 0.66 0 1 0 C1 2.31 1 4.62 1 7 C0.67 7 0.34 7 0 7 C0 4.69 0 2.38 0 0 Z " fill="#8F8F8F" transform="translate(0,531)"/>
<path d="M0 0 C0.33 0 0.66 0 1 0 C1 2.31 1 4.62 1 7 C0.67 7 0.34 7 0 7 C0 4.69 0 2.38 0 0 Z " fill="#A1A1A1" transform="translate(0,507)"/>
<path d="M0 0 C0.33 0 0.66 0 1 0 C1 2.31 1 4.62 1 7 C0.67 7 0.34 7 0 7 C0 4.69 0 2.38 0 0 Z " fill="#B0B0B0" transform="translate(0,435)"/>
<path d="M0 0 C0.33 0 0.66 0 1 0 C1 2.31 1 4.62 1 7 C0.67 7 0.34 7 0 7 C0 4.69 0 2.38 0 0 Z " fill="#B3B3B3" transform="translate(0,291)"/>
<path d="M0 0 C0.33 0 0.66 0 1 0 C1 2.31 1 4.62 1 7 C0.67 7 0.34 7 0 7 C0 4.69 0 2.38 0 0 Z " fill="#C8C8C8" transform="translate(0,255)"/>
<path d="M0 0 C0.33 0 0.66 0 1 0 C1 2.31 1 4.62 1 7 C0.67 7 0.34 7 0 7 C0 4.69 0 2.38 0 0 Z " fill="#B6B6B6" transform="translate(0,239)"/>
<path d="M0 0 C0.33 0 0.66 0 1 0 C1 2.31 1 4.62 1 7 C0.67 7 0.34 7 0 7 C0 4.69 0 2.38 0 0 Z " fill="#B0B0B0" transform="translate(0,151)"/>
<path d="M0 0 C0.33 0 0.66 0 1 0 C1 2.31 1 4.62 1 7 C0.67 7 0.34 7 0 7 C0 4.69 0 2.38 0 0 Z " fill="#A4A4A4" transform="translate(0,119)"/>
<path d="M0 0 C0.99 0.495 0.99 0.495 2 1 C1.34 2.32 0.68 3.64 0 5 C0 3.35 0 1.7 0 0 Z " fill="#1C3131" transform="translate(616,768)"/>
<path d="M0 0 C1.485 0.99 1.485 0.99 3 2 C2.01 2.33 1.02 2.66 0 3 C0 2.01 0 1.02 0 0 Z " fill="#0CECEC" transform="translate(368,627)"/>
<path d="M0 0 C0.33 0 0.66 0 1 0 C1 1.65 1 3.3 1 5 C0.67 5 0.34 5 0 5 C0 3.35 0 1.7 0 0 Z " fill="#B6B6B6" transform="translate(0,995)"/>
<path d="M0 0 C0.33 0 0.66 0 1 0 C1 1.65 1 3.3 1 5 C0.67 5 0.34 5 0 5 C0 3.35 0 1.7 0 0 Z " fill="#A6A6A6" transform="translate(0,971)"/>
<path d="M0 0 C0.33 0 0.66 0 1 0 C1 1.65 1 3.3 1 5 C0.67 5 0.34 5 0 5 C0 3.35 0 1.7 0 0 Z " fill="#A1A1A1" transform="translate(0,939)"/>
<path d="M0 0 C0.33 0 0.66 0 1 0 C1 1.65 1 3.3 1 5 C0.67 5 0.34 5 0 5 C0 3.35 0 1.7 0 0 Z " fill="#858585" transform="translate(0,827)"/>
<path d="M0 0 C0.33 0 0.66 0 1 0 C1 1.65 1 3.3 1 5 C0.67 5 0.34 5 0 5 C0 3.35 0 1.7 0 0 Z " fill="#E5E5E5" transform="translate(0,759)"/>
<path d="M0 0 C0.33 0 0.66 0 1 0 C1 1.65 1 3.3 1 5 C0.67 5 0.34 5 0 5 C0 3.35 0 1.7 0 0 Z " fill="#909090" transform="translate(0,683)"/>
<path d="M0 0 C0.33 0 0.66 0 1 0 C1 1.65 1 3.3 1 5 C0.67 5 0.34 5 0 5 C0 3.35 0 1.7 0 0 Z " fill="#BFBFBF" transform="translate(0,609)"/>
<path d="M0 0 C0.33 0 0.66 0 1 0 C1 1.65 1 3.3 1 5 C0.67 5 0.34 5 0 5 C0 3.35 0 1.7 0 0 Z " fill="#A6A6A6" transform="translate(0,571)"/>
<path d="M0 0 C0.33 0 0.66 0 1 0 C1 1.65 1 3.3 1 5 C0.67 5 0.34 5 0 5 C0 3.35 0 1.7 0 0 Z " fill="#BFBFBF" transform="translate(0,321)"/>
<path d="M0 0 C0.33 0 0.66 0 1 0 C1 1.65 1 3.3 1 5 C0.67 5 0.34 5 0 5 C0 3.35 0 1.7 0 0 Z " fill="#AAAAAA" transform="translate(0,283)"/>
<path d="M0 0 C0.33 0 0.66 0 1 0 C1 1.65 1 3.3 1 5 C0.67 5 0.34 5 0 5 C0 3.35 0 1.7 0 0 Z " fill="#BBBBBB" transform="translate(0,227)"/>
<path d="M0 0 C0.33 0 0.66 0 1 0 C1 1.65 1 3.3 1 5 C0.67 5 0.34 5 0 5 C0 3.35 0 1.7 0 0 Z " fill="#AAAAAA" transform="translate(0,219)"/>
<path d="M0 0 C0.33 0 0.66 0 1 0 C1 1.65 1 3.3 1 5 C0.67 5 0.34 5 0 5 C0 3.35 0 1.7 0 0 Z " fill="#BBBBBB" transform="translate(0,145)"/>
<path d="M0 0 C0.33 0 0.66 0 1 0 C1 1.65 1 3.3 1 5 C0.67 5 0.34 5 0 5 C0 3.35 0 1.7 0 0 Z " fill="#B1B1B1" transform="translate(0,139)"/>
<path d="M0 0 C1 4 1 4 1 4 Z " fill="#CACACA" transform="translate(0,911)"/>
<path d="M0 0 C0 3 0 3 0 3 Z " fill="#003535" transform="translate(604,861)"/>
<path d="M0 0 C0.99 0.33 1.98 0.66 3 1 C2.01 1.33 1.02 1.66 0 2 C0 1.34 0 0.68 0 0 Z " fill="#0C3939" transform="translate(588,784)"/>
<path d="M0 0 C4 1 4 1 4 1 Z " fill="#105A5A" transform="translate(435,784)"/>
<path d="M0 0 C0.99 0.495 0.99 0.495 2 1 C1.34 1.66 0.68 2.32 0 3 C0 2.01 0 1.02 0 0 Z " fill="#102525" transform="translate(423,777)"/>
<path d="M0 0 C1 4 1 4 1 4 Z " fill="#00FFFF" transform="translate(436,212)"/>
<path d="" fill="#CDCDCD" transform="translate(0,0)"/>
<path d="" fill="#E9E9E9" transform="translate(0,0)"/>
<path d="" fill="#D4D4D4" transform="translate(0,0)"/>
<path d="M0 0 C3 1 3 1 3 1 Z " fill="#000000" transform="translate(541,875)"/>
<path d="" fill="#AAAAAA" transform="translate(0,0)"/>
<path d="" fill="#FFFFFF" transform="translate(0,0)"/>
<path d="" fill="#8E8E8E" transform="translate(0,0)"/>
<path d="M0 0 C3 1 3 1 3 1 Z " fill="#004747" transform="translate(336,819)"/>
<path d="" fill="#E2E2E2" transform="translate(0,0)"/>
<path d="" fill="#B8B8B8" transform="translate(0,0)"/>
<path d="M0 0 C3 1 3 1 3 1 Z " fill="#007171" transform="translate(467,793)"/>
<path d="M0 0 C3 1 3 1 3 1 Z " fill="#156A6A" transform="translate(461,792)"/>
<path d="M0 0 C3 1 3 1 3 1 Z " fill="#008080" transform="translate(441,786)"/>
<path d="" fill="#B8B8B8" transform="translate(0,0)"/>
<path d="" fill="#D4D4E9" transform="translate(0,0)"/>
<path d="M0 0 C0.99 0.495 0.99 0.495 2 1 C1.01 1.495 1.01 1.495 0 2 C0 1.34 0 0.68 0 0 Z " fill="#000000" transform="translate(622,768)"/>
<path d="" fill="#8E8E8E" transform="translate(0,0)"/>
<path d="M0 0 C0.66 0 1.32 0 2 0 C1.67 0.66 1.34 1.32 1 2 C0.67 1.34 0.34 0.68 0 0 Z " fill="#001C1C" transform="translate(643,752)"/>
<path d="M0 0 C0.66 0.66 1.32 1.32 2 2 C1.34 2 0.68 2 0 2 C0 1.34 0 0.68 0 0 Z " fill="#004747" transform="translate(265,748)"/>
<path d="M0 0 C0.99 0.495 0.99 0.495 2 1 C1.01 1.495 1.01 1.495 0 2 C0 1.34 0 0.68 0 0 Z " fill="#000000" transform="translate(440,741)"/>
<path d="" fill="#E2E2E2" transform="translate(0,0)"/>
<path d="M0 0 C0.33 0.66 0.66 1.32 1 2 C0.34 1.67 -0.32 1.34 -1 1 C-0.67 0.67 -0.34 0.34 0 0 Z " fill="#000000" transform="translate(277,712)"/>
<path d="M0 0 C0.99 0.495 0.99 0.495 2 1 C1.01 1.495 1.01 1.495 0 2 C0 1.34 0 0.68 0 0 Z " fill="#002A2A" transform="translate(592,661)"/>
<path d="" fill="#E2E2E2" transform="translate(0,0)"/>
<path d="" fill="#A3A3A3" transform="translate(0,0)"/>
<path d="" fill="#CDCDCD" transform="translate(0,0)"/>
<path d="" fill="#BFBFBF" transform="translate(0,0)"/>
<path d="" fill="#B2B2B2" transform="translate(0,0)"/>
<path d="" fill="#D4D4D4" transform="translate(0,0)"/>
<path d="" fill="#B8B8B8" transform="translate(0,0)"/>
<path d="" fill="#AAAAAA" transform="translate(0,0)"/>
<path d="" fill="#E2E2E2" transform="translate(0,0)"/>
<path d="" fill="#D4D4D4" transform="translate(0,0)"/>
<path d="" fill="#B8B8B8" transform="translate(0,0)"/>
<path d="" fill="#D4D4D4" transform="translate(0,0)"/>
<path d="" fill="#AAAAAA" transform="translate(0,0)"/>
<path d="" fill="#8E8E8E" transform="translate(0,0)"/>
<path d="" fill="#FFFFFF" transform="translate(0,0)"/>
<path d="" fill="#C6C6C6" transform="translate(0,0)"/>
<path d="M0 0 C0.66 0.66 1.32 1.32 2 2 C1.34 2 0.68 2 0 2 C0 1.34 0 0.68 0 0 Z " fill="#1C1C1C" transform="translate(433,490)"/>
<path d="" fill="#A3A3A3" transform="translate(0,0)"/>
<path d="" fill="#C6C6C6" transform="translate(0,0)"/>
<path d="" fill="#AAAAAA" transform="translate(0,0)"/>
<path d="" fill="#8E8E8E" transform="translate(0,0)"/>
<path d="" fill="#B8B8B8" transform="translate(0,0)"/>
<path d="" fill="#E9E9E9" transform="translate(0,0)"/>
<path d="" fill="#9C9C9C" transform="translate(0,0)"/>
<path d="" fill="#D4D4D4" transform="translate(0,0)"/>
<path d="" fill="#AAAAAA" transform="translate(0,0)"/>
<path d="" fill="#AAAAAA" transform="translate(0,0)"/>
<path d="" fill="#AAAAAA" transform="translate(0,0)"/>
<path d="" fill="#999999" transform="translate(0,0)"/>
<path d="" fill="#FFFFD4" transform="translate(0,0)"/>
<path d="" fill="#FFFFFF" transform="translate(0,0)"/>
<path d="" fill="#D4D4D4" transform="translate(0,0)"/>
<path d="" fill="#808080" transform="translate(0,0)"/>
<path d="" fill="#FFFFFF" transform="translate(0,0)"/>
<path d="" fill="#BFBFBF" transform="translate(0,0)"/>
<path d="" fill="#BFBFBF" transform="translate(0,0)"/>
<path d="" fill="#D4D4D4" transform="translate(0,0)"/>
<path d="" fill="#FFFFFF" transform="translate(0,0)"/>
<path d="" fill="#FFFFFF" transform="translate(0,0)"/>
<path d="M0 0 C2 1 2 1 2 1 Z " fill="#004040" transform="translate(506,876)"/>
<path d="" fill="#000000" transform="translate(0,0)"/>
<path d="M0 0 C2 1 2 1 2 1 Z " fill="#000000" transform="translate(451,870)"/>
<path d="M0 0 C2 1 2 1 2 1 Z " fill="#000000" transform="translate(449,869)"/>
<path d="M0 0 C2 1 2 1 2 1 Z " fill="#004040" transform="translate(584,867)"/>
<path d="M0 0 C2 1 2 1 2 1 Z " fill="#002A2A" transform="translate(441,867)"/>
<path d="" fill="#008080" transform="translate(0,0)"/>
<path d="M0 0 C2 1 2 1 2 1 Z " fill="#002A2A" transform="translate(620,855)"/>
<path d="" fill="#000000" transform="translate(0,0)"/>
<path d="" fill="#BFBFBF" transform="translate(0,0)"/>
<path d="M0 0 C2 1 2 1 2 1 Z " fill="#006A6A" transform="translate(356,831)"/>
<path d="" fill="#008080" transform="translate(0,0)"/>
<path d="M0 0 C2 1 2 1 2 1 Z " fill="#004040" transform="translate(331,814)"/>
<path d="M0 0 C2 1 2 1 2 1 Z " fill="#000000" transform="translate(484,796)"/>
<path d="M0 0 C2 1 2 1 2 1 Z " fill="#395353" transform="translate(563,792)"/>
<path d="M0 0 C2 1 2 1 2 1 Z " fill="#000000" transform="translate(560,792)"/>
<path d="M0 0 C2 1 2 1 2 1 Z " fill="#006A6A" transform="translate(421,776)"/>
<path d="M0 0 C2 1 2 1 2 1 Z " fill="#000000" transform="translate(505,765)"/>
<path d="M0 0 C2 1 2 1 2 1 Z " fill="#000000" transform="translate(756,751)"/>
<path d="" fill="#006A6A" transform="translate(0,0)"/>
<path d="" fill="#004040" transform="translate(0,0)"/>
<path d="" fill="#AAAAAA" transform="translate(0,0)"/>
<path d="M0 0 C2 1 2 1 2 1 Z " fill="#202020" transform="translate(697,699)"/>
<path d="M0 0 C2 1 2 1 2 1 Z " fill="#000000" transform="translate(394,695)"/>
<path d="" fill="#FFFFFF" transform="translate(0,0)"/>
<path d="M0 0 C2 1 2 1 2 1 Z " fill="#004040" transform="translate(507,689)"/>
<path d="M0 0 C2 1 2 1 2 1 Z " fill="#002A2A" transform="translate(549,688)"/>
<path d="M0 0 C2 1 2 1 2 1 Z " fill="#206060" transform="translate(501,688)"/>
<path d="" fill="#000000" transform="translate(0,0)"/>
<path d="" fill="#9F9F9F" transform="translate(0,0)"/>
<path d="M0 0 C2 1 2 1 2 1 Z " fill="#000000" transform="translate(384,679)"/>
<path d="M0 0 C2 1 2 1 2 1 Z " fill="#000000" transform="translate(589,664)"/>
<path d="" fill="#20BFBF" transform="translate(0,0)"/>
<path d="" fill="#6A9595" transform="translate(0,0)"/>
<path d="" fill="#FFFFFF" transform="translate(0,0)"/>
<path d="" fill="#004040" transform="translate(0,0)"/>
<path d="" fill="#BFBFBF" transform="translate(0,0)"/>
<path d="" fill="#80DFDF" transform="translate(0,0)"/>
<path d="M0 0 C2 1 2 1 2 1 Z " fill="#000000" transform="translate(473,525)"/>
<path d="" fill="#2AD4D4" transform="translate(0,0)"/>
<path d="" fill="#00FFFF" transform="translate(0,0)"/>
<path d="" fill="#000000" transform="translate(0,0)"/>
<path d="" fill="#40FFFF" transform="translate(0,0)"/>
<path d="M0 0 C2 1 2 1 2 1 Z " fill="#2A6A6A" transform="translate(605,464)"/>
<path d="M0 0 C2 1 2 1 2 1 Z " fill="#004040" transform="translate(455,464)"/>
<path d="M0 0 C2 1 2 1 2 1 Z " fill="#2A2A2A" transform="translate(469,456)"/>
<path d="M0 0 C2 1 2 1 2 1 Z " fill="#000000" transform="translate(485,450)"/>
<path d="M0 0 C2 1 2 1 2 1 Z " fill="#004040" transform="translate(563,448)"/>
<path d="M0 0 C2 1 2 1 2 1 Z " fill="#2A2A2A" transform="translate(492,448)"/>
<path d="M0 0 C2 1 2 1 2 1 Z " fill="#00FFFF" transform="translate(377,347)"/>
<path d="M0 0 C2 1 2 1 2 1 Z " fill="#40FFFF" transform="translate(492,278)"/>
<path d="M0 0 C2 1 2 1 2 1 Z " fill="#2AD4D4" transform="translate(489,277)"/>
<path d="" fill="#FFFFFF" transform="translate(0,0)"/>
<path d="" fill="#FFFFFF" transform="translate(0,0)"/>
<path d="" fill="#D4D4D4" transform="translate(0,0)"/>
<path d="" fill="#FFFFFF" transform="translate(0,0)"/>
<path d="M0 0 C2 1 2 1 2 1 Z " fill="#00FFFF" transform="translate(508,129)"/>
<path d="" fill="#BFBFBF" transform="translate(0,0)"/>
<path d="" fill="#FFFFFF" transform="translate(0,0)"/>
<path d="" fill="#FFFFFF" transform="translate(0,0)"/>
<path d="" fill="#FFFFFF" transform="translate(0,0)"/>
<path d="" fill="#FFFFFF" transform="translate(0,0)"/>
<path d="" fill="#808080" transform="translate(0,0)"/>
<path d="" fill="#FFFFFF" transform="translate(0,0)"/>
<path d="" fill="#FFFFFF" transform="translate(0,0)"/>
<path d="" fill="#808080" transform="translate(0,0)"/>
<path d="" fill="#FFFFFF" transform="translate(0,0)"/>
<path d="" fill="#808080" transform="translate(0,0)"/>
<path d="" fill="#FFFFFF" transform="translate(0,0)"/>
<path d="" fill="#FFFFFF" transform="translate(0,0)"/>
<path d="" fill="#808080" transform="translate(0,0)"/>
<path d="" fill="#FFFFFF" transform="translate(0,0)"/>
<path d="" fill="#AAAAAA" transform="translate(0,0)"/>
<path d="" fill="#808080" transform="translate(0,0)"/>
<path d="" fill="#808080" transform="translate(0,0)"/>
<path d="" fill="#808080" transform="translate(0,0)"/>
<path d="" fill="#000000" transform="translate(0,0)"/>
<path d="" fill="#000000" transform="translate(0,0)"/>
<path d="" fill="#000000" transform="translate(0,0)"/>
<path d="" fill="#000000" transform="translate(0,0)"/>
<path d="" fill="#000000" transform="translate(0,0)"/>
<path d="" fill="#008080" transform="translate(0,0)"/>
<path d="" fill="#000000" transform="translate(0,0)"/>
<path d="" fill="#008080" transform="translate(0,0)"/>
<path d="" fill="#000000" transform="translate(0,0)"/>
<path d="" fill="#000000" transform="translate(0,0)"/>
<path d="" fill="#000000" transform="translate(0,0)"/>
<path d="" fill="#000000" transform="translate(0,0)"/>
<path d="" fill="#000000" transform="translate(0,0)"/>
<path d="" fill="#000000" transform="translate(0,0)"/>
<path d="" fill="#000000" transform="translate(0,0)"/>
<path d="" fill="#000000" transform="translate(0,0)"/>
<path d="" fill="#808080" transform="translate(0,0)"/>
<path d="" fill="#000000" transform="translate(0,0)"/>
<path d="" fill="#808080" transform="translate(0,0)"/>
<path d="" fill="#000000" transform="translate(0,0)"/>
<path d="" fill="#000000" transform="translate(0,0)"/>
<path d="" fill="#000000" transform="translate(0,0)"/>
<path d="" fill="#000000" transform="translate(0,0)"/>
<path d="" fill="#008080" transform="translate(0,0)"/>
<path d="" fill="#008080" transform="translate(0,0)"/>
<path d="" fill="#008080" transform="translate(0,0)"/>
<path d="" fill="#000000" transform="translate(0,0)"/>
<path d="" fill="#000000" transform="translate(0,0)"/>
<path d="" fill="#000000" transform="translate(0,0)"/>
<path d="" fill="#000000" transform="translate(0,0)"/>
<path d="" fill="#000000" transform="translate(0,0)"/>
<path d="" fill="#000000" transform="translate(0,0)"/>
<path d="" fill="#000000" transform="translate(0,0)"/>
<path d="" fill="#008080" transform="translate(0,0)"/>
<path d="" fill="#000000" transform="translate(0,0)"/>
<path d="" fill="#008080" transform="translate(0,0)"/>
<path d="" fill="#000000" transform="translate(0,0)"/>
<path d="" fill="#000000" transform="translate(0,0)"/>
<path d="" fill="#008080" transform="translate(0,0)"/>
<path d="" fill="#000000" transform="translate(0,0)"/>
<path d="" fill="#FFFFFF" transform="translate(0,0)"/>
<path d="" fill="#000000" transform="translate(0,0)"/>
<path d="" fill="#000000" transform="translate(0,0)"/>
<path d="" fill="#008080" transform="translate(0,0)"/>
<path d="" fill="#000000" transform="translate(0,0)"/>
<path d="" fill="#008080" transform="translate(0,0)"/>
<path d="" fill="#005555" transform="translate(0,0)"/>
<path d="" fill="#000000" transform="translate(0,0)"/>
<path d="" fill="#000000" transform="translate(0,0)"/>
<path d="" fill="#008080" transform="translate(0,0)"/>
<path d="" fill="#000000" transform="translate(0,0)"/>
<path d="" fill="#FFFFFF" transform="translate(0,0)"/>
<path d="" fill="#000000" transform="translate(0,0)"/>
<path d="" fill="#005555" transform="translate(0,0)"/>
<path d="" fill="#FFFFFF" transform="translate(0,0)"/>
<path d="" fill="#FFFFFF" transform="translate(0,0)"/>
<path d="" fill="#000000" transform="translate(0,0)"/>
<path d="" fill="#808080" transform="translate(0,0)"/>
<path d="" fill="#808080" transform="translate(0,0)"/>
<path d="" fill="#000000" transform="translate(0,0)"/>
<path d="" fill="#008080" transform="translate(0,0)"/>
<path d="" fill="#000000" transform="translate(0,0)"/>
<path d="" fill="#000000" transform="translate(0,0)"/>
<path d="" fill="#008080" transform="translate(0,0)"/>
<path d="" fill="#000000" transform="translate(0,0)"/>
<path d="" fill="#008080" transform="translate(0,0)"/>
<path d="" fill="#005555" transform="translate(0,0)"/>
<path d="" fill="#000000" transform="translate(0,0)"/>
<path d="" fill="#AAAAAA" transform="translate(0,0)"/>
<path d="" fill="#000000" transform="translate(0,0)"/>
<path d="" fill="#008080" transform="translate(0,0)"/>
<path d="" fill="#FFFFFF" transform="translate(0,0)"/>
<path d="" fill="#000000" transform="translate(0,0)"/>
<path d="" fill="#000000" transform="translate(0,0)"/>
<path d="" fill="#005555" transform="translate(0,0)"/>
<path d="" fill="#000000" transform="translate(0,0)"/>
<path d="" fill="#005555" transform="translate(0,0)"/>
<path d="" fill="#000000" transform="translate(0,0)"/>
<path d="" fill="#000000" transform="translate(0,0)"/>
<path d="" fill="#808080" transform="translate(0,0)"/>
<path d="" fill="#000000" transform="translate(0,0)"/>
<path d="" fill="#000000" transform="translate(0,0)"/>
<path d="" fill="#008080" transform="translate(0,0)"/>
<path d="" fill="#005555" transform="translate(0,0)"/>
<path d="" fill="#000000" transform="translate(0,0)"/>
<path d="" fill="#000000" transform="translate(0,0)"/>
<path d="" fill="#808080" transform="translate(0,0)"/>
<path d="" fill="#000000" transform="translate(0,0)"/>
<path d="" fill="#008080" transform="translate(0,0)"/>
<path d="" fill="#000000" transform="translate(0,0)"/>
<path d="" fill="#008080" transform="translate(0,0)"/>
<path d="" fill="#808080" transform="translate(0,0)"/>
<path d="" fill="#000000" transform="translate(0,0)"/>
<path d="" fill="#000000" transform="translate(0,0)"/>
<path d="" fill="#000000" transform="translate(0,0)"/>
<path d="" fill="#000000" transform="translate(0,0)"/>
<path d="" fill="#000000" transform="translate(0,0)"/>
<path d="" fill="#000000" transform="translate(0,0)"/>
<path d="" fill="#808080" transform="translate(0,0)"/>
<path d="" fill="#000000" transform="translate(0,0)"/>
<path d="" fill="#005555" transform="translate(0,0)"/>
<path d="" fill="#000000" transform="translate(0,0)"/>
<path d="" fill="#000000" transform="translate(0,0)"/>
<path d="" fill="#000000" transform="translate(0,0)"/>
<path d="" fill="#000000" transform="translate(0,0)"/>
<path d="" fill="#008080" transform="translate(0,0)"/>
<path d="" fill="#000000" transform="translate(0,0)"/>
<path d="" fill="#000000" transform="translate(0,0)"/>
<path d="" fill="#000000" transform="translate(0,0)"/>
<path d="" fill="#000000" transform="translate(0,0)"/>
<path d="" fill="#000000" transform="translate(0,0)"/>
<path d="" fill="#008080" transform="translate(0,0)"/>
<path d="" fill="#000000" transform="translate(0,0)"/>
<path d="" fill="#008080" transform="translate(0,0)"/>
<path d="" fill="#008080" transform="translate(0,0)"/>
<path d="" fill="#000000" transform="translate(0,0)"/>
<path d="" fill="#008080" transform="translate(0,0)"/>
<path d="" fill="#000000" transform="translate(0,0)"/>
<path d="" fill="#008080" transform="translate(0,0)"/>
<path d="" fill="#008080" transform="translate(0,0)"/>
<path d="" fill="#000000" transform="translate(0,0)"/>
<path d="" fill="#000000" transform="translate(0,0)"/>
<path d="" fill="#000000" transform="translate(0,0)"/>
<path d="" fill="#008080" transform="translate(0,0)"/>
<path d="" fill="#2B5555" transform="translate(0,0)"/>
<path d="" fill="#000000" transform="translate(0,0)"/>
<path d="" fill="#000000" transform="translate(0,0)"/>
<path d="" fill="#000000" transform="translate(0,0)"/>
<path d="" fill="#000000" transform="translate(0,0)"/>
<path d="" fill="#008080" transform="translate(0,0)"/>
<path d="" fill="#000000" transform="translate(0,0)"/>
<path d="" fill="#000000" transform="translate(0,0)"/>
<path d="" fill="#000000" transform="translate(0,0)"/>
<path d="" fill="#008080" transform="translate(0,0)"/>
<path d="" fill="#008080" transform="translate(0,0)"/>
<path d="" fill="#000000" transform="translate(0,0)"/>
<path d="" fill="#008080" transform="translate(0,0)"/>
<path d="" fill="#000000" transform="translate(0,0)"/>
<path d="" fill="#000000" transform="translate(0,0)"/>
<path d="" fill="#008080" transform="translate(0,0)"/>
<path d="" fill="#008080" transform="translate(0,0)"/>
<path d="" fill="#000000" transform="translate(0,0)"/>
<path d="" fill="#000000" transform="translate(0,0)"/>
<path d="" fill="#AAAAAA" transform="translate(0,0)"/>
<path d="" fill="#008080" transform="translate(0,0)"/>
<path d="" fill="#000000" transform="translate(0,0)"/>
<path d="" fill="#008080" transform="translate(0,0)"/>
<path d="" fill="#008080" transform="translate(0,0)"/>
<path d="" fill="#000000" transform="translate(0,0)"/>
<path d="" fill="#005555" transform="translate(0,0)"/>
<path d="" fill="#000000" transform="translate(0,0)"/>
<path d="" fill="#000000" transform="translate(0,0)"/>
<path d="" fill="#000000" transform="translate(0,0)"/>
<path d="" fill="#404040" transform="translate(0,0)"/>
<path d="" fill="#008080" transform="translate(0,0)"/>
<path d="" fill="#005555" transform="translate(0,0)"/>
<path d="" fill="#000000" transform="translate(0,0)"/>
<path d="" fill="#000000" transform="translate(0,0)"/>
<path d="" fill="#005555" transform="translate(0,0)"/>
<path d="" fill="#000000" transform="translate(0,0)"/>
<path d="" fill="#000000" transform="translate(0,0)"/>
<path d="" fill="#AAAAAA" transform="translate(0,0)"/>
<path d="" fill="#000000" transform="translate(0,0)"/>
<path d="" fill="#005555" transform="translate(0,0)"/>
<path d="" fill="#008080" transform="translate(0,0)"/>
<path d="" fill="#BFBFBF" transform="translate(0,0)"/>
<path d="" fill="#000000" transform="translate(0,0)"/>
<path d="" fill="#000000" transform="translate(0,0)"/>
<path d="" fill="#555555" transform="translate(0,0)"/>
<path d="" fill="#000000" transform="translate(0,0)"/>
<path d="" fill="#000000" transform="translate(0,0)"/>
<path d="" fill="#000000" transform="translate(0,0)"/>
<path d="" fill="#008080" transform="translate(0,0)"/>
<path d="" fill="#FFFFFF" transform="translate(0,0)"/>
<path d="" fill="#008080" transform="translate(0,0)"/>
<path d="" fill="#000000" transform="translate(0,0)"/>
<path d="" fill="#808080" transform="translate(0,0)"/>
<path d="" fill="#000000" transform="translate(0,0)"/>
<path d="" fill="#005555" transform="translate(0,0)"/>
<path d="" fill="#BFBFBF" transform="translate(0,0)"/>
<path d="" fill="#008080" transform="translate(0,0)"/>
<path d="" fill="#404040" transform="translate(0,0)"/>
<path d="" fill="#000000" transform="translate(0,0)"/>
<path d="" fill="#000000" transform="translate(0,0)"/>
<path d="" fill="#AAAAAA" transform="translate(0,0)"/>
<path d="" fill="#008080" transform="translate(0,0)"/>
<path d="" fill="#000000" transform="translate(0,0)"/>
<path d="" fill="#005555" transform="translate(0,0)"/>
<path d="" fill="#000000" transform="translate(0,0)"/>
<path d="" fill="#000000" transform="translate(0,0)"/>
<path d="" fill="#008080" transform="translate(0,0)"/>
<path d="" fill="#000000" transform="translate(0,0)"/>
<path d="" fill="#808080" transform="translate(0,0)"/>
<path d="" fill="#000000" transform="translate(0,0)"/>
<path d="" fill="#005555" transform="translate(0,0)"/>
<path d="" fill="#000080" transform="translate(0,0)"/>
<path d="" fill="#333366" transform="translate(0,0)"/>
<path d="" fill="#000000" transform="translate(0,0)"/>
<path d="" fill="#000000" transform="translate(0,0)"/>
<path d="" fill="#000000" transform="translate(0,0)"/>
<path d="" fill="#000000" transform="translate(0,0)"/>
<path d="" fill="#000000" transform="translate(0,0)"/>
<path d="" fill="#000000" transform="translate(0,0)"/>
<path d="" fill="#008080" transform="translate(0,0)"/>
<path d="" fill="#000000" transform="translate(0,0)"/>
<path d="" fill="#FFFFFF" transform="translate(0,0)"/>
<path d="" fill="#000000" transform="translate(0,0)"/>
<path d="" fill="#808080" transform="translate(0,0)"/>
<path d="" fill="#000000" transform="translate(0,0)"/>
<path d="" fill="#000000" transform="translate(0,0)"/>
<path d="" fill="#000000" transform="translate(0,0)"/>
<path d="" fill="#000000" transform="translate(0,0)"/>
<path d="" fill="#FFFFFF" transform="translate(0,0)"/>
<path d="" fill="#000000" transform="translate(0,0)"/>
<path d="" fill="#FFFFFF" transform="translate(0,0)"/>
<path d="" fill="#808080" transform="translate(0,0)"/>
<path d="" fill="#000000" transform="translate(0,0)"/>
<path d="" fill="#FFFFFF" transform="translate(0,0)"/>
<path d="" fill="#005555" transform="translate(0,0)"/>
<path d="" fill="#008080" transform="translate(0,0)"/>
<path d="" fill="#008080" transform="translate(0,0)"/>
<path d="" fill="#000000" transform="translate(0,0)"/>
<path d="" fill="#808080" transform="translate(0,0)"/>
<path d="" fill="#000000" transform="translate(0,0)"/>
<path d="" fill="#008080" transform="translate(0,0)"/>
<path d="" fill="#000000" transform="translate(0,0)"/>
<path d="" fill="#000000" transform="translate(0,0)"/>
<path d="" fill="#008080" transform="translate(0,0)"/>
<path d="" fill="#008080" transform="translate(0,0)"/>
<path d="" fill="#AAAAAA" transform="translate(0,0)"/>
<path d="" fill="#000000" transform="translate(0,0)"/>
<path d="" fill="#AAAAAA" transform="translate(0,0)"/>
<path d="" fill="#000000" transform="translate(0,0)"/>
<path d="" fill="#808080" transform="translate(0,0)"/>
<path d="" fill="#FFFFFF" transform="translate(0,0)"/>
<path d="" fill="#000000" transform="translate(0,0)"/>
<path d="" fill="#55AAAA" transform="translate(0,0)"/>
<path d="" fill="#00FFFF" transform="translate(0,0)"/>
<path d="" fill="#808080" transform="translate(0,0)"/>
<path d="" fill="#00FFFF" transform="translate(0,0)"/>
<path d="" fill="#00FFFF" transform="translate(0,0)"/>
<path d="" fill="#808080" transform="translate(0,0)"/>
<path d="" fill="#AAAAAA" transform="translate(0,0)"/>
<path d="" fill="#000000" transform="translate(0,0)"/>
<path d="" fill="#808080" transform="translate(0,0)"/>
<path d="" fill="#000000" transform="translate(0,0)"/>
<path d="" fill="#00FFFF" transform="translate(0,0)"/>
<path d="" fill="#00FFFF" transform="translate(0,0)"/>
<path d="" fill="#00FFFF" transform="translate(0,0)"/>
<path d="" fill="#000000" transform="translate(0,0)"/>
<path d="" fill="#00FFFF" transform="translate(0,0)"/>
<path d="" fill="#000000" transform="translate(0,0)"/>
<path d="" fill="#808080" transform="translate(0,0)"/>
<path d="" fill="#000000" transform="translate(0,0)"/>
<path d="" fill="#00FFFF" transform="translate(0,0)"/>
<path d="" fill="#000000" transform="translate(0,0)"/>
<path d="" fill="#000000" transform="translate(0,0)"/>
<path d="" fill="#00FFFF" transform="translate(0,0)"/>
<path d="" fill="#00FFFF" transform="translate(0,0)"/>
<path d="" fill="#AAAAAA" transform="translate(0,0)"/>
<path d="" fill="#80FFFF" transform="translate(0,0)"/>
<path d="" fill="#808080" transform="translate(0,0)"/>
<path d="" fill="#FFFFFF" transform="translate(0,0)"/>
<path d="" fill="#000000" transform="translate(0,0)"/>
<path d="" fill="#000000" transform="translate(0,0)"/>
<path d="" fill="#008080" transform="translate(0,0)"/>
<path d="" fill="#BFBFBF" transform="translate(0,0)"/>
<path d="" fill="#000000" transform="translate(0,0)"/>
<path d="" fill="#000000" transform="translate(0,0)"/>
<path d="" fill="#00FFFF" transform="translate(0,0)"/>
<path d="" fill="#000000" transform="translate(0,0)"/>
<path d="" fill="#008080" transform="translate(0,0)"/>
<path d="" fill="#000000" transform="translate(0,0)"/>
<path d="" fill="#000000" transform="translate(0,0)"/>
<path d="" fill="#80FFFF" transform="translate(0,0)"/>
<path d="" fill="#000000" transform="translate(0,0)"/>
<path d="" fill="#000000" transform="translate(0,0)"/>
<path d="" fill="#000000" transform="translate(0,0)"/>
<path d="" fill="#000000" transform="translate(0,0)"/>
<path d="" fill="#000000" transform="translate(0,0)"/>
<path d="" fill="#000000" transform="translate(0,0)"/>
<path d="" fill="#499292" transform="translate(0,0)"/>
<path d="" fill="#00FFFF" transform="translate(0,0)"/>
<path d="" fill="#000000" transform="translate(0,0)"/>
<path d="" fill="#555555" transform="translate(0,0)"/>
<path d="" fill="#00FFFF" transform="translate(0,0)"/>
<path d="" fill="#000000" transform="translate(0,0)"/>
<path d="" fill="#000000" transform="translate(0,0)"/>
<path d="" fill="#000000" transform="translate(0,0)"/>
<path d="" fill="#008080" transform="translate(0,0)"/>
<path d="" fill="#000000" transform="translate(0,0)"/>
<path d="" fill="#000000" transform="translate(0,0)"/>
<path d="" fill="#000000" transform="translate(0,0)"/>
<path d="" fill="#808080" transform="translate(0,0)"/>
<path d="" fill="#808080" transform="translate(0,0)"/>
<path d="" fill="#000000" transform="translate(0,0)"/>
<path d="" fill="#000000" transform="translate(0,0)"/>
<path d="" fill="#008080" transform="translate(0,0)"/>
<path d="" fill="#00FFFF" transform="translate(0,0)"/>
<path d="" fill="#000000" transform="translate(0,0)"/>
<path d="" fill="#404080" transform="translate(0,0)"/>
<path d="" fill="#555555" transform="translate(0,0)"/>
<path d="" fill="#808080" transform="translate(0,0)"/>
<path d="" fill="#000000" transform="translate(0,0)"/>
<path d="" fill="#000000" transform="translate(0,0)"/>
<path d="" fill="#BFBFBF" transform="translate(0,0)"/>
<path d="" fill="#000000" transform="translate(0,0)"/>
<path d="" fill="#008080" transform="translate(0,0)"/>
<path d="" fill="#000000" transform="translate(0,0)"/>
<path d="" fill="#000000" transform="translate(0,0)"/>
<path d="" fill="#80FFFF" transform="translate(0,0)"/>
<path d="" fill="#000000" transform="translate(0,0)"/>
<path d="" fill="#000000" transform="translate(0,0)"/>
<path d="" fill="#408080" transform="translate(0,0)"/>
<path d="" fill="#000000" transform="translate(0,0)"/>
<path d="" fill="#000000" transform="translate(0,0)"/>
<path d="" fill="#000000" transform="translate(0,0)"/>
<path d="" fill="#000000" transform="translate(0,0)"/>
<path d="" fill="#000000" transform="translate(0,0)"/>
<path d="" fill="#008080" transform="translate(0,0)"/>
<path d="" fill="#008080" transform="translate(0,0)"/>
<path d="" fill="#00FFFF" transform="translate(0,0)"/>
<path d="" fill="#000000" transform="translate(0,0)"/>
<path d="" fill="#000000" transform="translate(0,0)"/>
<path d="" fill="#00FFFF" transform="translate(0,0)"/>
<path d="" fill="#AAAAAA" transform="translate(0,0)"/>
<path d="" fill="#000000" transform="translate(0,0)"/>
<path d="" fill="#000000" transform="translate(0,0)"/>
<path d="" fill="#000000" transform="translate(0,0)"/>
<path d="" fill="#008080" transform="translate(0,0)"/>
<path d="" fill="#000000" transform="translate(0,0)"/>
<path d="" fill="#000000" transform="translate(0,0)"/>
<path d="" fill="#000000" transform="translate(0,0)"/>
<path d="" fill="#008080" transform="translate(0,0)"/>
<path d="" fill="#000000" transform="translate(0,0)"/>
<path d="" fill="#000000" transform="translate(0,0)"/>
<path d="" fill="#00FFFF" transform="translate(0,0)"/>
<path d="" fill="#00FFFF" transform="translate(0,0)"/>
<path d="" fill="#00FFFF" transform="translate(0,0)"/>
<path d="" fill="#00FFFF" transform="translate(0,0)"/>
<path d="" fill="#00FFFF" transform="translate(0,0)"/>
<path d="" fill="#55AAAA" transform="translate(0,0)"/>
<path d="" fill="#00FFFF" transform="translate(0,0)"/>
<path d="" fill="#00FFFF" transform="translate(0,0)"/>
<path d="" fill="#00FFFF" transform="translate(0,0)"/>
<path d="" fill="#00FFFF" transform="translate(0,0)"/>
<path d="" fill="#00FFFF" transform="translate(0,0)"/>
<path d="" fill="#80FFFF" transform="translate(0,0)"/>
<path d="" fill="#00FFFF" transform="translate(0,0)"/>
<path d="" fill="#00FFFF" transform="translate(0,0)"/>
<path d="" fill="#00FFFF" transform="translate(0,0)"/>
<path d="" fill="#00FFFF" transform="translate(0,0)"/>
<path d="" fill="#80FFFF" transform="translate(0,0)"/>
<path d="" fill="#00FFFF" transform="translate(0,0)"/>
<path d="" fill="#00FFFF" transform="translate(0,0)"/>
<path d="" fill="#00FFFF" transform="translate(0,0)"/>
<path d="" fill="#00FFFF" transform="translate(0,0)"/>
<path d="" fill="#80FFFF" transform="translate(0,0)"/>
<path d="" fill="#00FFFF" transform="translate(0,0)"/>
<path d="" fill="#80FFFF" transform="translate(0,0)"/>
<path d="" fill="#00FFFF" transform="translate(0,0)"/>
<path d="" fill="#80FFFF" transform="translate(0,0)"/>
<path d="" fill="#00FFFF" transform="translate(0,0)"/>
<path d="" fill="#80BFBF" transform="translate(0,0)"/>
<path d="" fill="#55AAAA" transform="translate(0,0)"/>
<path d="" fill="#80FFFF" transform="translate(0,0)"/>
<path d="" fill="#00FFFF" transform="translate(0,0)"/>
<path d="" fill="#80FFFF" transform="translate(0,0)"/>
<path d="" fill="#00FFFF" transform="translate(0,0)"/>
<path d="" fill="#00FFFF" transform="translate(0,0)"/>
<path d="" fill="#80FFFF" transform="translate(0,0)"/>
<path d="" fill="#00FFFF" transform="translate(0,0)"/>
<path d="" fill="#00FFFF" transform="translate(0,0)"/>
<path d="" fill="#80FFFF" transform="translate(0,0)"/>
<path d="" fill="#00FFFF" transform="translate(0,0)"/>
<path d="" fill="#80BFBF" transform="translate(0,0)"/>
<path d="" fill="#00FFFF" transform="translate(0,0)"/>
<path d="" fill="#00FFFF" transform="translate(0,0)"/>
<path d="" fill="#00FFFF" transform="translate(0,0)"/>
<path d="" fill="#80FFFF" transform="translate(0,0)"/>
<path d="" fill="#00FFFF" transform="translate(0,0)"/>
<path d="" fill="#FFFFFF" transform="translate(0,0)"/>
<path d="" fill="#FFFFFF" transform="translate(0,0)"/>
<path d="" fill="#00FFFF" transform="translate(0,0)"/>
<path d="" fill="#00FFFF" transform="translate(0,0)"/>
<path d="" fill="#00FFFF" transform="translate(0,0)"/>
<path d="" fill="#00FFFF" transform="translate(0,0)"/>
<path d="" fill="#00FFFF" transform="translate(0,0)"/>
<path d="" fill="#00FFFF" transform="translate(0,0)"/>
<path d="" fill="#808080" transform="translate(0,0)"/>
<path d="" fill="#00FFFF" transform="translate(0,0)"/>
<path d="" fill="#00FFFF" transform="translate(0,0)"/>
<path d="" fill="#00FFFF" transform="translate(0,0)"/>
<path d="" fill="#808080" transform="translate(0,0)"/>
<path d="" fill="#999999" transform="translate(0,0)"/>
<path d="" fill="#AAAAAA" transform="translate(0,0)"/>
<path d="" fill="#808080" transform="translate(0,0)"/>
<path d="" fill="#00FFFF" transform="translate(0,0)"/>
<path d="" fill="#00FFFF" transform="translate(0,0)"/>
<path d="" fill="#FFFFFF" transform="translate(0,0)"/>
<path d="" fill="#808080" transform="translate(0,0)"/>
<path d="" fill="#00FFFF" transform="translate(0,0)"/>
<path d="" fill="#00FFFF" transform="translate(0,0)"/>
<path d="" fill="#FFFFFF" transform="translate(0,0)"/>
<path d="" fill="#AAAAAA" transform="translate(0,0)"/>
<path d="" fill="#00FFFF" transform="translate(0,0)"/>
<path d="" fill="#AAAAAA" transform="translate(0,0)"/>
<path d="" fill="#00FFFF" transform="translate(0,0)"/>
<path d="" fill="#FFFFFF" transform="translate(0,0)"/>
<path d="" fill="#808080" transform="translate(0,0)"/>
<path d="" fill="#FFFFFF" transform="translate(0,0)"/>
<path d="" fill="#00FFFF" transform="translate(0,0)"/>
<path d="" fill="#FFFFFF" transform="translate(0,0)"/>
<path d="" fill="#808080" transform="translate(0,0)"/>
<path d="" fill="#00FFFF" transform="translate(0,0)"/>
<path d="" fill="#00FFFF" transform="translate(0,0)"/>
<path d="" fill="#808080" transform="translate(0,0)"/>
<path d="" fill="#808080" transform="translate(0,0)"/>
<path d="" fill="#FFFFFF" transform="translate(0,0)"/>
<path d="" fill="#808080" transform="translate(0,0)"/>
<path d="" fill="#00FFFF" transform="translate(0,0)"/>
<path d="" fill="#00FFFF" transform="translate(0,0)"/>
<path d="" fill="#FFFFFF" transform="translate(0,0)"/>
<path d="" fill="#80FFFF" transform="translate(0,0)"/>
<path d="" fill="#00FFFF" transform="translate(0,0)"/>
<path d="" fill="#00FFFF" transform="translate(0,0)"/>
<path d="" fill="#FFFFFF" transform="translate(0,0)"/>
<path d="" fill="#CCCCCC" transform="translate(0,0)"/>
<path d="" fill="#FFFFFF" transform="translate(0,0)"/>
<path d="" fill="#FFFFFF" transform="translate(0,0)"/>
<path d="" fill="#FFFFFF" transform="translate(0,0)"/>
<path d="" fill="#FFFFFF" transform="translate(0,0)"/>
<path d="" fill="#FFFFFF" transform="translate(0,0)"/>
<path d="" fill="#FFFFFF" transform="translate(0,0)"/>
<path d="" fill="#FFFFFF" transform="translate(0,0)"/>
<path d="" fill="#FFFFFF" transform="translate(0,0)"/>
<path d="" fill="#FFFFFF" transform="translate(0,0)"/>
<path d="" fill="#FFFFFF" transform="translate(0,0)"/>
<path d="" fill="#FFFFFF" transform="translate(0,0)"/>
<path d="" fill="#FFFFFF" transform="translate(0,0)"/>
</svg>
