<?xml version="1.0" encoding="UTF-8"?>
<svg version="1.1" xmlns="http://www.w3.org/2000/svg" width="1024" height="1024">
<path d="M0 0 C3.74766613 0.02312657 7.49532467 0.04125872 11.24302459 0.05792594 C16.93196498 0.08413432 22.62060189 0.12496778 28.30935049 0.17837667 C30.31447726 0.19526312 32.31964924 0.20761679 34.32483482 0.21463966 C67.34861761 0.34360635 94.86284334 10.52420152 122.16059089 28.72269988 C122.82059089 29.05269988 123.48059089 29.38269988 124.16059089 29.72269988 C124.92371589 30.52707488 125.68684089 31.33144988 126.47309089 32.16019988 C128.92107512 34.8254498 128.92107512 34.8254498 131.78559089 35.72269988 C134.95777873 37.05835792 135.42070222 38.77859233 137.16059089 41.72269988 C138.63959578 43.52861495 140.16226158 45.29951655 141.72309089 47.03519988 C142.50812995 47.91820769 143.29316901 48.80121551 144.10199714 49.71098113 C145.91926902 51.95567227 145.91926902 51.95567227 148.16059089 51.72269988 C148.23020026 52.24992644 148.29980964 52.77715301 148.37152839 53.32035613 C149.49524233 56.74156441 151.63916338 59.32079414 153.78559089 62.16019988 C166.16059089 78.97236204 166.16059089 78.97236204 166.16059089 84.72269988 C166.82059089 85.05269988 167.48059089 85.38269988 168.16059089 85.72269988 C169.28132807 88.71133236 170.23941178 91.66908914 171.16059089 94.72269988 C171.35056647 95.33806609 171.54054206 95.9534323 171.73627448 96.58744597 C174.41808601 105.28390765 176.78264545 113.94137748 178.58246589 122.86723113 C178.90836277 124.47689751 179.25855243 126.08343027 179.68896129 127.66835388 C180.47544487 131.09415543 180.29516404 134.58005515 180.28363872 138.07766604 C180.28479256 138.93232297 180.2859464 139.78697989 180.28713521 140.66753551 C180.28979636 143.55081618 180.28528378 146.43404177 180.2808454 149.31731963 C180.28128121 151.39753329 180.28215629 153.4777469 180.28343457 155.55796021 C180.28567774 161.28953114 180.28166062 167.02108349 180.27665651 172.75265205 C180.27234959 178.92788427 180.27379861 185.10311539 180.27455878 191.27834868 C180.27508389 201.98312515 180.2719732 212.68789492 180.26632094 223.39266944 C180.26040615 234.62348816 180.25655546 245.85430446 180.25546813 257.08512473 C180.25539939 257.78313318 180.25533065 258.48114162 180.25525983 259.20030183 C180.2549215 262.74511629 180.25462011 266.28993076 180.25433295 269.83474522 C180.25223163 294.9537298 180.24549205 320.07271122 180.23603034 345.19169402 C180.22685104 369.58915479 180.21976464 393.98661469 180.21552253 418.38407683 C180.21532524 419.51152016 180.21532524 419.51152016 180.21512396 420.66174012 C180.2138054 428.21014964 180.21252956 435.75855917 180.2112851 443.30696871 C180.20874774 458.69216344 180.20592675 474.07735813 180.20293403 489.46255279 C180.20279674 490.17017741 180.20265945 490.87780204 180.202518 491.60686984 C180.19417462 534.4588659 180.18028996 577.3108603 180.16525298 620.16285449 C180.16493588 621.06878873 180.16461878 621.97472297 180.16429207 622.90810975 C180.16370585 624.57757355 180.16311483 626.24703734 180.16251799 627.91650113 C180.16148508 630.85190091 180.16059089 633.78729989 180.16059089 636.72269988 C179.17059089 636.72269988 178.18059089 636.72269988 177.16059089 636.72269988 C177.13932136 637.60055144 177.13932136 637.60055144 177.11762214 638.49613738 C176.374225 651.87728584 172.06291829 664.63181764 166.39643073 676.6843698 C165.04477656 679.56797368 164.16059089 681.49220901 164.16059089 684.72269988 C163.17585543 685.73773489 162.17194052 686.73417981 161.16059089 687.72269988 C159.89616924 689.7216636 158.67138667 691.74590949 157.47309089 693.78519988 C150.21351593 705.84977006 140.75878999 716.37847323 130.70746589 726.19926238 C129.32042442 727.56528807 127.98654305 728.98480131 126.66059089 730.41019988 C124.27941752 732.61278524 121.91499593 734.14713268 119.06684089 735.68363738 C116.94841572 736.83835274 114.89896957 738.07704678 112.84809089 739.34769988 C111.86389167 739.95484832 111.86389167 739.95484832 110.85980964 740.57426238 C109.01172675 741.7449665 109.01172675 741.7449665 107.16059089 743.72269988 C92.83463971 751.36767904 77.3109744 757.23115372 61.26117682 759.73588347 C57.29022555 760.31960322 57.29022555 760.31960322 54.16059089 762.72269988 C51.53559089 762.84769988 51.53559089 762.84769988 49.16059089 762.72269988 C48.83059089 763.38269988 48.50059089 764.04269988 48.16059089 764.72269988 C48.16059089 764.06269988 48.16059089 763.40269988 48.16059089 762.72269988 C46.88635764 763.04760059 45.6121244 763.37250131 44.29927802 763.7072475 C36.2570153 765.29973577 28.10250708 764.99523816 19.94159675 764.96993804 C18.08393204 764.97152767 16.2262679 764.9739928 14.36860538 764.97725445 C9.27976845 764.98365132 4.19101142 764.97761264 -0.89782023 764.96949017 C-6.39209548 764.96289998 -11.88636198 764.96786453 -17.38063836 764.97137237 C-28.13766823 764.97640972 -38.89466731 764.9707785 -49.65169334 764.96152207 C-62.18051661 764.95112922 -74.70933325 764.95120849 -87.23816001 764.95169464 C-110.26915231 764.95221024 -133.30013046 764.94217822 -156.33111657 764.9271922 C-177.34527631 764.91356888 -198.35942468 764.90733095 -219.3735888 764.90800261 C-220.72294915 764.90804303 -222.07230949 764.90808339 -223.42166984 764.90812369 C-224.08877544 764.90814405 -224.75588104 764.9081644 -225.44320196 764.90818536 C-228.80149273 764.90828616 -232.1597835 764.90837674 -235.51807427 764.90845561 C-236.51193517 764.90848068 -236.51193517 764.90848068 -237.52587406 764.90850626 C-258.86863631 764.90895006 -280.21139648 764.9018286 -301.55415708 764.89409276 C-310.28597019 764.89107786 -319.01778231 764.89001337 -327.74959588 764.88956046 C-338.39171265 764.88887789 -349.03382041 764.8844071 -359.67593336 764.87522765 C-365.10495921 764.87061486 -370.53397355 764.86756226 -375.96300149 764.86882186 C-380.93460556 764.86991939 -385.90618418 764.86638323 -390.87778294 764.85917334 C-392.67441901 764.85736487 -394.47105772 764.85722496 -396.26769388 764.85894062 C-404.85028359 764.86622768 -413.30761651 764.79171001 -421.83940911 763.72269988 C-422.16940911 763.72269988 -422.49940911 763.72269988 -422.83940911 763.72269988 C-432.17274245 763.72269988 -441.50607578 763.72269988 -450.83940911 763.72269988 C-451.16940911 763.06269988 -451.49940911 762.40269988 -451.83940911 761.72269988 C-451.83940911 762.71269988 -451.83940911 763.70269988 -451.83940911 764.72269988 C-452.49940911 764.72269988 -453.15940911 764.72269988 -453.83940911 764.72269988 C-454.16940911 763.73269988 -454.49940911 762.74269988 -454.83940911 761.72269988 C-456.09753411 761.55254363 -457.35565911 761.38238738 -458.65190911 761.20707488 C-473.83585927 759.08800268 -488.06246611 756.39575509 -502.04644036 749.89457488 C-504.79565996 748.52924809 -504.79565996 748.52924809 -507.83940911 748.72269988 C-507.83940911 748.06269988 -507.83940911 747.40269988 -507.83940911 746.72269988 C-509.15940911 747.38269988 -510.47940911 748.04269988 -511.83940911 748.72269988 C-511.83940911 748.06269988 -511.83940911 747.40269988 -511.83940911 746.72269988 C-512.47878411 746.61957488 -513.11815911 746.51644988 -513.77690911 746.41019988 C-514.45753411 746.18332488 -515.13815911 745.95644988 -515.83940911 745.72269988 C-516.33440911 744.23769988 -516.33440911 744.23769988 -516.83940911 742.72269988 C-519.37975887 740.79536613 -519.37975887 740.79536613 -522.46440911 738.91019988 C-527.28400011 735.79874555 -531.5993196 732.57732671 -535.83940911 728.72269988 C-536.16940911 729.38269988 -536.49940911 730.04269988 -536.83940911 730.72269988 C-537.49940911 730.72269988 -538.15940911 730.72269988 -538.83940911 730.72269988 C-538.9154638 729.99437957 -538.99151849 729.26605926 -539.06987786 728.51566863 C-540.03599487 725.00920336 -541.54783762 723.54550775 -544.15190911 721.03519988 C-545.32173333 719.8847116 -545.32173333 719.8847116 -546.51519036 718.71098113 C-548.58327687 716.94181132 -550.35386345 715.78630867 -552.83940911 714.72269988 C-552.83940911 713.73269988 -552.83940911 712.74269988 -552.83940911 711.72269988 C-554.30634346 709.45027319 -554.30634346 709.45027319 -556.21440911 707.16019988 C-557.15413568 705.98264129 -557.15413568 705.98264129 -558.11284661 704.78129363 C-559.82569851 702.67815465 -559.82569851 702.67815465 -561.83940911 700.72269988 C-562.49940911 700.72269988 -563.15940911 700.72269988 -563.83940911 700.72269988 C-563.92319818 699.87836394 -564.00698724 699.03402801 -564.09331536 698.16410613 C-564.95974586 694.16763875 -566.66956221 691.10282147 -568.77690911 687.66019988 C-571.11216474 683.77924733 -573.29485072 680.00056057 -574.83940911 675.72269988 C-575.49940911 675.72269988 -576.15940911 675.72269988 -576.83940911 675.72269988 C-577.00376458 674.79650847 -577.00376458 674.79650847 -577.17144036 673.85160613 C-578.149899 668.62520511 -579.3957787 663.71501514 -581.25347161 658.73051238 C-581.83940911 656.72269988 -581.83940911 656.72269988 -581.83940911 652.72269988 C-582.49940911 652.39269988 -583.15940911 652.06269988 -583.83940911 651.72269988 C-584.05597161 650.26863738 -584.05597161 650.26863738 -584.27690911 648.78519988 C-584.55534661 647.26926238 -584.55534661 647.26926238 -584.83940911 645.72269988 C-585.82940911 645.06269988 -586.81940911 644.40269988 -587.83940911 643.72269988 C-588.13686378 640.86347487 -588.23577029 638.22040287 -588.2085526 635.35836482 C-588.21201413 634.47840241 -588.21547566 633.59844 -588.21904209 632.69181207 C-588.22705312 629.71027792 -588.21346618 626.72921903 -588.20017266 623.74770904 C-588.20147952 621.60179826 -588.20410373 619.45588795 -588.20794016 617.30998021 C-588.2146806 611.38755053 -588.20260372 605.46528214 -588.18760598 599.54287302 C-588.17470086 593.16586958 -588.17903115 586.78887591 -588.1813128 580.41186309 C-588.18288907 569.35452801 -588.17354718 558.29724669 -588.15659928 547.23992515 C-588.13886375 535.63902767 -588.12730461 524.03815129 -588.12404084 512.43724036 C-588.12383462 511.71662264 -588.1236284 510.99600492 -588.12341594 510.2535503 C-588.12240097 506.59405566 -588.12149681 502.934561 -588.12063531 499.27506632 C-588.11432949 473.33629113 -588.09410497 447.39754352 -588.06572747 421.45878386 C-588.03818907 396.25793901 -588.01693068 371.05710169 -588.00420403 345.8562448 C-588.00380946 345.07988184 -588.00341488 344.30351889 -588.00300834 343.50362978 C-587.99905282 335.70714963 -587.99522534 327.91066942 -587.99149176 320.11418917 C-587.98388156 304.2284484 -587.97541806 288.34270812 -587.96643853 272.45696807 C-587.96602666 271.72645262 -587.96561479 270.99593717 -587.96519044 270.24328489 C-587.93863496 223.30978802 -587.89361944 176.37630629 -587.84519044 129.44282737 C-587.84114743 126.0827643 -587.84114743 126.0827643 -587.83940911 122.72269988 C-587.83940911 120.72269988 -587.83940911 118.72269988 -587.83940911 116.72269988 C-586.35440911 116.22769988 -586.35440911 116.22769988 -584.83940911 115.72269988 C-583.86180349 113.67083759 -583.86180349 113.67083759 -583.23394036 111.13676238 C-582.97290521 110.20605926 -582.71187005 109.27535613 -582.44292474 108.31644988 C-582.051372 106.84691863 -582.051372 106.84691863 -581.65190911 105.34769988 C-581.37927239 104.37574676 -581.10663568 103.40379363 -580.82573724 102.40238738 C-579.32893857 97.13796259 -579.32893857 97.13796259 -578.83940911 91.72269988 C-578.17940911 91.72269988 -577.51940911 91.72269988 -576.83940911 91.72269988 C-576.7504638 91.06914519 -576.66151849 90.41559051 -576.56987786 89.74223113 C-574.13133194 79.66203863 -568.45283058 69.61319584 -561.83940911 61.72269988 C-559.72980804 58.94511527 -557.62549329 56.16376702 -555.52935052 53.37602019 C-552.85735169 49.88080291 -550.00467094 46.77367439 -546.83940911 43.72269988 C-545.25500025 42.1612905 -543.67162436 40.59883206 -542.08940911 39.03519988 C-541.31081536 38.26820769 -540.53222161 37.50121551 -539.73003411 36.71098113 C-537.78710296 34.86162998 -537.78710296 34.86162998 -536.83940911 32.72269988 C-534.77690911 31.59769988 -534.77690911 31.59769988 -532.83940911 30.72269988 C-533.33440911 29.73269988 -533.33440911 29.73269988 -533.83940911 28.72269988 C-532.98347161 28.47262176 -532.12753411 28.22254363 -531.24565911 27.96488738 C-527.59054178 26.63194321 -524.62697119 24.921995 -521.33940911 22.84769988 C-519.71519036 21.83062957 -519.71519036 21.83062957 -518.05815911 20.79301238 C-514.96191098 18.80149356 -511.89530085 16.77530186 -508.83940911 14.72269988 C-509.33440911 13.73269988 -509.33440911 13.73269988 -509.83940911 12.72269988 C-509.01054193 12.78199676 -508.18167474 12.84129363 -507.32769036 12.90238738 C-503.08454886 12.6838157 -499.90786443 11.47580797 -496.02690911 9.84769988 C-495.34692864 9.57828582 -494.66694818 9.30887176 -493.96636224 9.03129363 C-490.21534605 7.69524964 -490.21534605 7.69524964 -487.83940911 4.72269988 C-486.34392777 4.78348865 -486.34392777 4.78348865 -484.81823468 4.84550548 C-481.38866924 4.73965268 -478.61093467 4.23475635 -475.3266893 3.32839578 C-459.96556592 -0.75113731 -443.84769557 0.13402074 -428.08331001 0.15923536 C-423.50525738 0.16215093 -418.92729479 0.14192982 -414.34928155 0.12473845 C-405.37536417 0.09461311 -396.40154308 0.08542723 -387.42758022 0.08327367 C-376.85279032 0.07985295 -366.27808274 0.05466416 -355.70332815 0.02871779 C-336.68985977 -0.01725421 -317.67641032 -0.04467718 -298.66289544 -0.06123567 C-280.50302833 -0.07707518 -262.34323116 -0.10411381 -244.18340325 -0.14522004 C-243.07836273 -0.14770702 -241.97332221 -0.150194 -240.83479561 -0.15275635 C-236.38365542 -0.16277869 -231.93251529 -0.17282305 -227.48137522 -0.18289853 C-151.65508248 -0.35356609 -75.82536167 -0.50205183 0 0 Z M-586.83940911 631.72269988 C-586.88065911 632.98082488 -586.92190911 634.23894988 -586.96440911 635.53519988 C-586.98761224 636.24289519 -587.01081536 636.95059051 -587.03472161 637.67973113 C-586.97195373 640.03629707 -586.97195373 640.03629707 -584.83940911 642.72269988 C-585.16940911 639.09269988 -585.49940911 635.46269988 -585.83940911 631.72269988 C-586.16940911 631.72269988 -586.49940911 631.72269988 -586.83940911 631.72269988 Z M-576.83940911 670.72269988 C-575.83940911 672.72269988 -575.83940911 672.72269988 -575.83940911 672.72269988 Z M-398.83940911 761.72269988 C-394.83940911 762.72269988 -394.83940911 762.72269988 -394.83940911 762.72269988 Z M-261.83940911 761.72269988 C-261.83940911 762.05269988 -261.83940911 762.38269988 -261.83940911 762.72269988 C-260.18940911 762.72269988 -258.53940911 762.72269988 -256.83940911 762.72269988 C-256.83940911 762.39269988 -256.83940911 762.06269988 -256.83940911 761.72269988 C-258.48940911 761.72269988 -260.13940911 761.72269988 -261.83940911 761.72269988 Z M32.16059089 761.72269988 C36.16059089 762.72269988 36.16059089 762.72269988 36.16059089 762.72269988 Z M40.16059089 761.72269988 C44.16059089 762.72269988 44.16059089 762.72269988 44.16059089 762.72269988 Z " fill="#162D38" transform="translate(715.8394091129303,131.27730011940002)"/>
<path d="M0 0 C2.36915955 0.01068392 4.73755324 0.00005648 7.10668945 -0.01269531 C59.95677049 -0.06578309 106.95969989 19.46938651 144.38208008 56.44824219 C147.81672417 59.91533961 151.04629057 63.43124215 154.06958008 67.26074219 C152.56884095 72.33649044 149.47113552 75.36777952 145.88208008 79.07324219 C144.68854406 80.33026933 143.49582706 81.58807465 142.30395508 82.84667969 C141.73612305 83.44319336 141.16829102 84.03970703 140.58325195 84.65429688 C138.88142359 86.46043085 137.24427362 88.31180954 135.63208008 90.19824219 C131.65282257 94.8141809 127.45199598 99.22415562 123.28417969 103.66894531 C118.79606737 108.46239195 114.38739388 113.31268848 110.06958008 118.26074219 C107.40679051 115.61266416 104.763864 112.95062519 102.15942383 110.24511719 C81.60844919 89.04581598 56.03997637 75.07932072 27.06958008 69.26074219 C25.99450195 69.03644531 24.91942383 68.81214844 23.81176758 68.58105469 C-8.36188935 62.92159214 -40.19745373 70.37398636 -67.27807617 88.29199219 C-85.75080431 102.00370792 -98.23107796 120.59712586 -102.51245117 143.35449219 C-104.89281276 159.90579144 -100.22732227 176.55534897 -90.63012695 190.09521484 C-74.87617768 210.82169992 -51.68022346 224.95867249 -26.93041992 232.26074219 C-28.1526819 235.70423025 -29.38444298 238.02856387 -31.93041992 240.63574219 C-44.2001453 254.25743315 -53.49637986 271.49953085 -57.93041992 289.26074219 C-58.12120117 290.01355469 -58.31198242 290.76636719 -58.50854492 291.54199219 C-61.80112515 312.76084252 -56.26961073 333.85882459 -44.10229492 351.37792969 C-40.65652129 355.95163642 -36.87988992 360.12119075 -32.93041992 364.26074219 C-32.34131836 364.93621094 -31.7522168 365.61167969 -31.14526367 366.30761719 C-15.35494895 383.65961138 8.77166085 390.48240414 31.06958008 394.26074219 C23.54492932 402.65008387 10.72200709 406.62264113 0.06958008 409.26074219 C-0.63175049 409.43661865 -1.33308105 409.61249512 -2.05566406 409.79370117 C-28.56890277 415.83061991 -55.61069315 410.26477868 -78.45776367 396.13183594 C-104.29617231 378.9574359 -119.20073318 354.74082592 -125.80541992 324.63574219 C-127.29022133 316.22014781 -127.24869126 307.65560199 -127.30541992 299.13574219 C-127.31345642 298.46291199 -127.32149292 297.79008179 -127.32977295 297.09686279 C-127.45203471 283.59002549 -125.43037858 271.39650345 -120.60229492 258.74902344 C-119.85174667 255.96937673 -119.69974218 254.85414463 -120.93041992 252.26074219 C-123.05172245 250.22042415 -123.05172245 250.22042415 -125.74291992 248.26074219 C-151.4819106 227.82979239 -165.86227296 200.14419659 -169.73852539 167.61108398 C-170.89545703 153.44087925 -171.03536147 138.18446446 -167.93041992 124.26074219 C-167.77444336 123.5561084 -167.6184668 122.85147461 -167.45776367 122.12548828 C-160.95132603 93.47908922 -147.28747005 70.36468067 -126.93041992 49.26074219 C-126.40416016 48.70749268 -125.87790039 48.15424316 -125.33569336 47.58422852 C-100.45304114 21.95907568 -64.50902241 8.20584569 -29.93041992 2.26074219 C-28.89296631 2.07527832 -27.8555127 1.88981445 -26.78662109 1.69873047 C-17.82136133 0.2397354 -9.05672707 -0.0483571 0 0 Z " fill="#FEFEFE" transform="translate(510.930419921875,239.7392578125)"/>
<path d="M0 0 C7.27149559 0.79906545 12.54307058 6.517784 18 11 C18.57540527 11.46954102 19.15081055 11.93908203 19.74365234 12.42285156 C28.18629277 19.36779559 36.15045234 26.83340195 44 34.4375 C44.90371338 35.29005371 45.80742676 36.14260742 46.73852539 37.02099609 C47.56731201 37.83777832 48.39609863 38.65456055 49.25 39.49609375 C49.99765625 40.21982178 50.7453125 40.9435498 51.515625 41.68920898 C53 44 53 44 52.85302734 47.07055664 C51.75294829 50.8484183 49.85190148 53.80824819 47.625 57 C47.17946777 57.65081543 46.73393555 58.30163086 46.27490234 58.97216797 C38.84572763 69.69225719 30.69213493 79.59764166 21.7265625 89.0625 C19.86211961 91.0370426 18.10074928 93.06095856 16.3828125 95.1640625 C14.4283077 97.49024362 12.56232004 99.42830321 10.25 101.375 C8.18301319 103.12984516 6.13152754 104.87681459 4.15234375 106.73046875 C-33.04955108 141.41772257 -86.09793434 162.49371967 -137.13671875 161.25 C-155.08375131 160.48743223 -172.72909328 157.92694382 -190 153 C-190.74975098 152.79036621 -191.49950195 152.58073242 -192.27197266 152.36474609 C-217.21824032 145.22546394 -240.76920487 132.13819526 -261 116 C-261.90878906 115.28328125 -262.81757813 114.5665625 -263.75390625 113.828125 C-276.61412979 103.51067681 -287.72122252 92.52150126 -297.6875 79.375 C-298.24244141 78.65054688 -298.79738281 77.92609375 -299.36914062 77.1796875 C-300.92930759 75.13162052 -302.46575541 73.06751034 -304 71 C-304.43521973 70.44473633 -304.87043945 69.88947266 -305.31884766 69.31738281 C-307.04758576 66.99608282 -307.97748091 65.39317107 -308.14453125 62.4765625 C-306.47733366 58.8690428 -303.72931478 56.79605258 -300.6875 54.375 C-299.40206376 53.31571901 -298.11823726 52.25448191 -296.8359375 51.19140625 C-296.18979492 50.65918457 -295.54365234 50.12696289 -294.87792969 49.57861328 C-292.10392359 47.24674596 -289.4579374 44.7880147 -286.8125 42.3125 C-282.19749769 38.04162569 -277.45269576 34.00834791 -272.5390625 30.0859375 C-269.49125545 27.58204679 -266.65229936 24.89324827 -263.8515625 22.1171875 C-262 21 -262 21 -259.5625 20.9296875 C-255.94252694 22.44168844 -254.4276805 25.06672347 -252.375 28.25 C-251.50066385 29.53567194 -250.62162115 30.81815374 -249.73828125 32.09765625 C-249.28791504 32.75008301 -248.83754883 33.40250977 -248.37353516 34.07470703 C-227.00347065 64.02926243 -195.4035629 84.17405941 -159.3125 91.1875 C-121.87110746 97.34598232 -84.56160807 88.0208331 -53.625 66.125 C-47.09423568 61.36408795 -41.17755018 55.94818052 -35.38085938 50.32958984 C-34.20429993 49.19671454 -33.00300377 48.08962223 -31.796875 46.98828125 C-20.43834053 36.3454268 -12.55313309 22.4447186 -5 9 C-4.42765625 7.98550781 -3.8553125 6.97101562 -3.265625 5.92578125 C-2.16535075 3.95703209 -1.07997629 1.97995654 0 0 Z " fill="#FEFEFE" transform="translate(620,587)"/>
<path d="M0 0 C10.61763377 10.54168503 10.61763377 10.54168503 14.73046875 16.7109375 C14.43455263 20.24442113 12.92044863 21.8395982 10.37109375 24.1796875 C9.6740332 24.82711914 8.97697266 25.47455078 8.25878906 26.14160156 C7.50694336 26.82448242 6.75509766 27.50736328 5.98046875 28.2109375 C5.21057617 28.92217773 4.44068359 29.63341797 3.64746094 30.36621094 C1.34814336 32.48814441 -0.96041126 34.59968379 -3.26953125 36.7109375 C-4.999867 38.3091451 -6.72718234 39.91055425 -8.45410156 41.51245117 C-10.00754151 42.94984344 -11.56787758 44.37945187 -13.12890625 45.80859375 C-15.37579084 47.87155195 -17.58676509 49.96749749 -19.78515625 52.08203125 C-20.36813477 52.63665039 -20.95111328 53.19126953 -21.55175781 53.76269531 C-22.66542745 54.82318232 -23.77204711 55.89114219 -24.87011719 56.96777344 C-27.03747873 59.01850566 -29.08397328 60.62162689 -31.77734375 61.91796875 C-35.13618879 61.63894244 -36.45230163 59.98613659 -38.6184082 57.53271484 C-39.12202881 56.93152832 -39.62564941 56.3303418 -40.14453125 55.7109375 C-41.2181524 54.49426407 -42.29236583 53.27811301 -43.3671875 52.0625 C-44.33509333 50.9457092 -45.30260031 49.82857247 -46.26953125 48.7109375 C-61.17650366 31.90437249 -83.96234255 19.6401643 -106.26953125 16.7109375 C-108.9882142 16.72048466 -111.67316426 16.78177453 -114.38671875 16.89453125 C-115.98041182 16.93646727 -117.57416675 16.97610304 -119.16796875 17.01367188 C-121.64171835 17.07471308 -124.11200908 17.14695656 -126.58398438 17.25952148 C-142.98849566 17.97614309 -155.11684617 13.26967254 -167.51953125 2.3984375 C-168.17373047 1.84575195 -168.82792969 1.29306641 -169.50195312 0.72363281 C-171.44227853 -0.92801003 -173.35882991 -2.60329823 -175.26953125 -4.2890625 C-175.84251953 -4.78905762 -176.41550781 -5.28905273 -177.00585938 -5.80419922 C-183.56772466 -11.55454692 -189.65521855 -17.60142531 -195.26953125 -24.2890625 C-144.35532872 -77.7952608 -44.98576301 -42.3176419 0 0 Z " fill="#FEFEFE" transform="translate(648.26953125,435.2890625)"/>
<path d="M0 0 C47.54142679 -0.01711834 95.08285382 -0.03303897 142.62428284 -0.04234314 C143.32790909 -0.0424812 144.03153535 -0.04261925 144.75648362 -0.04276149 C160.04817143 -0.0457544 175.33985928 -0.04852458 190.63154718 -0.05106533 C198.1305855 -0.05231267 205.6296238 -0.05360922 213.12866211 -0.05493164 C213.87490662 -0.0550624 214.62115114 -0.05519316 215.39000912 -0.05532788 C239.57800707 -0.05958924 263.76600268 -0.06710056 287.95399922 -0.07629722 C312.81027108 -0.08573081 337.66654166 -0.09188568 362.52281528 -0.09391499 C366.03357732 -0.09420314 369.54433936 -0.09452878 373.05510139 -0.09487724 C373.74606983 -0.09494467 374.43703826 -0.09501209 375.14894513 -0.09508156 C386.27169314 -0.09626328 397.39443716 -0.10090136 408.51718354 -0.10683203 C419.69925077 -0.11272057 430.88131411 -0.11488669 442.06338321 -0.11350138 C448.12207499 -0.11285981 454.18075503 -0.11385511 460.23944473 -0.11920547 C465.78563938 -0.12406756 471.33181438 -0.1243201 476.87800992 -0.12089889 C478.88488664 -0.12047598 480.89176458 -0.12174799 482.8986389 -0.12488318 C485.62707798 -0.12889792 488.35544623 -0.12673177 491.08388424 -0.12304783 C491.86241384 -0.12567484 492.64094343 -0.12830186 493.44306484 -0.13100848 C498.69515573 -0.11499214 503.78748524 0.34914075 509 1 C509 1.33 509 1.66 509 2 C507.35 2 505.7 2 504 2 C503.67 2.66 503.34 3.32 503 4 C503 3.34 503 2.68 503 2 C501.72576675 2.32490071 500.45153351 2.64980143 499.13868713 2.98454762 C491.09642441 4.57703589 482.94191619 4.27253828 474.78100586 4.24723816 C472.92334115 4.24882779 471.06567702 4.25129292 469.20801449 4.25455457 C464.11917756 4.26095144 459.03042053 4.25491276 453.94158888 4.24679029 C448.44731364 4.2402001 442.95304714 4.24516465 437.45877075 4.24867249 C426.70174089 4.25370984 415.94474181 4.24807862 405.18771577 4.23882218 C392.6588925 4.22842934 380.13007586 4.22850861 367.6012491 4.22899476 C344.5702568 4.22951036 321.53927866 4.21947834 298.50829254 4.20449232 C277.4941328 4.190869 256.47998443 4.18463107 235.46582031 4.18530273 C234.11645997 4.18534315 232.76709962 4.18538351 231.41773927 4.18542381 C230.75063367 4.18544416 230.08352808 4.18546452 229.39620716 4.18548548 C226.03791638 4.18558628 222.67962561 4.18567686 219.32133484 4.18575573 C218.32747395 4.1857808 218.32747395 4.1857808 217.31353506 4.18580638 C195.97077281 4.18625018 174.62801264 4.17912872 153.28525203 4.17139288 C144.55343893 4.16837798 135.8216268 4.16731349 127.08981323 4.16686058 C116.44769646 4.16617801 105.8055887 4.16170722 95.16347575 4.15252777 C89.7344499 4.14791497 84.30543557 4.14486238 78.87640762 4.14612198 C73.90480356 4.14721951 68.93322494 4.14368335 63.96162617 4.13647345 C62.1649901 4.13466499 60.3683514 4.13452508 58.57171524 4.13624074 C49.98912552 4.1435278 41.53179261 4.06901013 33 3 C32.67 3 32.34 3 32 3 C22.66666667 3 13.33333333 3 4 3 C3.67 2.34 3.34 1.68 3 1 C3 1.99 3 2.98 3 4 C2.34 4 1.68 4 1 4 C0.67 2.68 0.34 1.36 0 0 Z M56 1 C60 2 60 2 60 2 Z M193 1 C193 1.33 193 1.66 193 2 C194.65 2 196.3 2 198 2 C198 1.67 198 1.34 198 1 C196.35 1 194.7 1 193 1 Z M487 1 C491 2 491 2 491 2 Z M495 1 C499 2 499 2 499 2 Z " fill="#1D3B49" transform="translate(261,892)"/>
<path d="M0 0 C2.12225458 -0.0004365 4.24450911 -0.00131286 6.36676335 -0.00258917 C12.17726387 -0.00481861 17.98774585 -0.0008341 23.798244 0.0041889 C30.07212033 0.0085155 36.34599565 0.0070454 42.61987305 0.00628662 C53.48275787 0.00576279 64.34563581 0.00885989 75.20851898 0.01452446 C86.59739968 0.02044805 97.98627799 0.02429173 109.37516022 0.02537727 C110.43863723 0.02548038 110.43863723 0.02548038 111.52359863 0.02558558 C115.12439412 0.02592392 118.72518961 0.0262253 122.3259851 0.02651245 C147.80889811 0.02861105 173.29180799 0.03534335 198.77471924 0.04481506 C223.52602115 0.05400421 248.27732221 0.06108551 273.02862549 0.06532288 C274.17369296 0.06552017 274.17369296 0.06552017 275.3418931 0.06572144 C283.00827842 0.06704 290.67466374 0.06831581 298.34104907 0.0695603 C313.95738725 0.07209629 329.57372538 0.07491754 345.19006348 0.07791138 C346.26700775 0.07811731 346.26700775 0.07811731 347.36570847 0.07832741 C395.28362225 0.08752303 443.20153418 0.10338849 491.1194458 0.12025452 C491.1194458 0.45025452 491.1194458 0.78025452 491.1194458 1.12025452 C490.05022902 1.12161105 488.98101224 1.12296757 487.87939495 1.12436521 C440.73996682 1.18430156 393.6005428 1.24669739 346.46113586 1.32157898 C345.39002214 1.32327941 345.39002214 1.32327941 344.29726976 1.3250142 C328.77712326 1.34966773 313.25697749 1.3747607 297.73683244 1.40030613 C290.12535669 1.41283158 282.51388078 1.42525997 274.90240479 1.43763733 C274.14498608 1.43887065 273.38756738 1.44010398 272.6071966 1.44137468 C248.0731299 1.48127866 223.53905956 1.51477732 199.00497912 1.54494142 C173.78538339 1.57598228 148.56580538 1.61351095 123.34623165 1.65916064 C119.78117586 1.66561069 116.21611993 1.67198686 112.65106392 1.67831802 C111.94943482 1.67956633 111.24780572 1.68081463 110.52491513 1.68210076 C99.2471454 1.70197585 87.96937764 1.7150459 76.69159571 1.72554779 C65.34361626 1.73626112 53.99567111 1.7543584 42.64771252 1.77942155 C36.50321295 1.79277815 30.35875208 1.80295021 24.21423721 1.80446815 C18.58257478 1.80593043 12.95100545 1.81658945 7.31937165 1.83438893 C5.2881679 1.83921652 3.25695288 1.84074506 1.2257446 1.83853333 C-8.94306128 1.82928297 -18.79909877 2.08320538 -28.85244936 3.69254458 C-31.58247967 4.07815246 -34.12955775 4.2009311 -36.8805542 4.12025452 C-28.41313613 -3.17821421 -10.70326722 -0.01639869 0 0 Z " fill="#000002" transform="translate(275.88055419921875,132.87974548339844)"/>
<path d="M0 0 C1.51017448 -0.00412399 1.51017448 -0.00412399 3.05085754 -0.0083313 C4.69839272 0.00245453 4.69839272 0.00245453 6.37921143 0.01345825 C8.12109993 0.01302017 8.12109993 0.01302017 9.8981781 0.01257324 C13.73991342 0.01396756 17.58145526 0.02953383 21.42315674 0.04519653 C24.08545256 0.0489263 26.74773764 0.05187182 29.41003418 0.05377197 C35.70335175 0.05998625 41.99659976 0.07639633 48.28988671 0.09647095 C55.45549234 0.11883161 62.62110131 0.1298238 69.78673315 0.13986182 C84.52495157 0.16076261 99.26311544 0.19593757 114.00128174 0.24050903 C111.20431455 3.03747622 108.27008369 2.94754501 104.49932861 3.35110474 C103.36228107 3.47754222 103.36228107 3.47754222 102.20226288 3.606534 C93.81203262 4.46745128 85.45824148 4.51203673 77.03253174 4.47097778 C75.37445105 4.46978068 73.71636967 4.46933394 72.05828857 4.46958923 C68.61964541 4.46804232 65.18110901 4.45988763 61.74249268 4.44631958 C57.35735512 4.42922452 52.97233284 4.42550944 48.58716583 4.42626476 C45.17778444 4.42599187 41.76842771 4.42049327 38.35905457 4.41326332 C36.74208258 4.41010688 35.12510783 4.40811642 33.50813293 4.40736961 C25.6147362 4.39971887 17.83396811 4.35399004 10.00128174 3.24050903 C10.00128174 2.58050903 10.00128174 1.92050903 10.00128174 1.24050903 C9.09378174 1.40550903 8.18628174 1.57050903 7.25128174 1.74050903 C1.86345699 2.52924214 -3.56784382 2.32076826 -8.99871826 2.24050903 C-5.86971744 0.41424535 -3.60602599 -0.00760765 0 0 Z M35.00128174 1.24050903 C35.00128174 1.57050903 35.00128174 1.90050903 35.00128174 2.24050903 C36.65128174 2.24050903 38.30128174 2.24050903 40.00128174 2.24050903 C40.00128174 1.91050903 40.00128174 1.58050903 40.00128174 1.24050903 C38.35128174 1.24050903 36.70128174 1.24050903 35.00128174 1.24050903 Z " fill="#223C4A" transform="translate(418.99871826171875,891.7594909667969)"/>
<path d="M0 0 C0.99574036 -0.00043808 0.99574036 -0.00043808 2.01159668 -0.00088501 C4.19764445 0.0005042 6.38334798 0.01604575 8.56933594 0.03173828 C10.08819391 0.03546987 11.60705429 0.03831616 13.12591553 0.04031372 C17.1175403 0.04793869 21.10901882 0.06757734 25.10058594 0.08972168 C29.17608665 0.11020464 33.25161106 0.11932067 37.32714844 0.12939453 C45.31940295 0.15082437 53.31153873 0.18494652 61.30371094 0.22705078 C59.30371094 2.22705078 59.30371094 2.22705078 56.55371094 2.38720703 C54.94496094 2.33886719 54.94496094 2.33886719 53.30371094 2.28955078 C49.14768154 2.02906978 49.14768154 2.02906978 45.30371094 3.22705078 C40.79284649 3.60292158 36.26446052 3.69694187 31.74121094 3.85205078 C30.49017578 3.90361328 29.23914063 3.95517578 27.95019531 4.00830078 C21.26874224 4.24730068 14.92265258 4.19006726 8.30371094 3.22705078 C8.30371094 2.56705078 8.30371094 1.90705078 8.30371094 1.22705078 C7.39621094 1.39205078 6.48871094 1.55705078 5.55371094 1.72705078 C0.16588619 2.51578389 -5.26541462 2.30731001 -10.69628906 2.22705078 C-7.11282501 -0.00668469 -4.17174068 -0.01545089 0 0 Z M33.30371094 1.22705078 C33.30371094 1.55705078 33.30371094 1.88705078 33.30371094 2.22705078 C34.95371094 2.22705078 36.60371094 2.22705078 38.30371094 2.22705078 C38.30371094 1.89705078 38.30371094 1.56705078 38.30371094 1.22705078 C36.65371094 1.22705078 35.00371094 1.22705078 33.30371094 1.22705078 Z " fill="#214550" transform="translate(420.6962890625,891.77294921875)"/>
<path d="M0 0 C7.19508318 3.34057434 7.19508318 3.34057434 8.82421875 6.69921875 C10.43904071 9.85911953 12.58040778 12.59610616 14.6875 15.4375 C27 32.33525209 27 32.33525209 27 38 C27.66 38.33 28.32 38.66 29 39 C29 40.32 29 41.64 29 43 C28.34 43 27.68 43 27 43 C26.5153125 41.98421875 26.030625 40.9684375 25.53125 39.921875 C19.79182092 28.06405251 13.22729683 17.40229701 4.76171875 7.25390625 C2.95031843 4.93643844 1.46147075 2.54970436 0 0 Z " fill="#101D25" transform="translate(855,178)"/>
<path d="M0 0 C0.99 0.33 1.98 0.66 3 1 C2.23816406 1.72703125 1.47632813 2.4540625 0.69140625 3.203125 C-9.5386072 13.10705573 -17.55101875 23.83253223 -25 36 C-25.5534764 33.92446352 -26 32.15634036 -26 30 C-24.68136582 28.65212781 -23.34501831 27.32154504 -22 26 C-20.69744897 24.29459813 -19.42809764 22.56348607 -18.1875 20.8125 C-5.42705537 3.08966023 -5.42705537 3.08966023 0 0 Z " fill="#0E1A21" transform="translate(174,170)"/>
<path d="M0 0 C3.24952771 2.77798741 5.09334776 6.40633101 7.1875 10.0625 C10.48048694 15.69061243 14.01132623 20.82254617 18.203125 25.8359375 C20.64524181 28.77709557 22.81774871 31.86301377 25 35 C22.125 34.6875 22.125 34.6875 19 34 C17 31 17 31 17 29 C15.92706976 27.46232458 14.79223169 25.96737698 13.625 24.5 C12.99851563 23.7059375 12.37203125 22.911875 11.7265625 22.09375 C10.01991345 19.95613104 10.01991345 19.95613104 8 18 C7.34 18 6.68 18 6 18 C5.9071875 16.7934375 5.9071875 16.7934375 5.8125 15.5625 C4.88439989 11.49313799 3.21493986 8.58767755 1.05859375 5.05078125 C0 3 0 3 0 0 Z " fill="#101F2A" transform="translate(146,814)"/>
<path d="M0 0 C1.26070313 0.00257813 2.52140625 0.00515625 3.8203125 0.0078125 C5.70363281 0.00394531 5.70363281 0.00394531 7.625 0 C10.9453125 0.1328125 10.9453125 0.1328125 13.9453125 1.1328125 C16.00676357 1.2018035 18.07032651 1.21748977 20.1328125 1.1953125 C21.21949219 1.18628906 22.30617188 1.17726563 23.42578125 1.16796875 C24.25722656 1.15636719 25.08867187 1.14476562 25.9453125 1.1328125 C25.9453125 1.7928125 25.9453125 2.4528125 25.9453125 3.1328125 C17.50483787 4.05598941 9.11662672 4.24230278 0.6328125 4.2578125 C-0.90536133 4.26458008 -0.90536133 4.26458008 -2.47460938 4.27148438 C-8.09600167 4.2605265 -13.49485865 3.96977598 -19.0546875 3.1328125 C-18.7246875 2.4728125 -18.3946875 1.8128125 -18.0546875 1.1328125 C-17.05566406 1.14441406 -16.05664062 1.15601563 -15.02734375 1.16796875 C-13.73699219 1.17699219 -12.44664062 1.18601562 -11.1171875 1.1953125 C-9.18552734 1.21271484 -9.18552734 1.21271484 -7.21484375 1.23046875 C-3.628501 1.11964234 -3.5473267 0.1542316 0 0 Z " fill="#1E3238" transform="translate(403.0546875,891.8671875)"/>
<path d="M0 0 C0.66 0 1.32 0 2 0 C2.70078836 3.91440993 3.38331354 7.831789 4.0625 11.75 C4.26166016 12.86117187 4.46082031 13.97234375 4.66601562 15.1171875 C4.84970703 16.18710937 5.03339844 17.25703125 5.22265625 18.359375 C5.39547119 19.34389648 5.56828613 20.32841797 5.74633789 21.34277344 C5.99058184 23.90134043 5.80486291 25.58290392 5 28 C5 27.34 5 26.68 5 26 C4.34 26 3.68 26 3 26 C2.71125 25.38125 2.4225 24.7625 2.125 24.125 C1.06279958 21.86674235 1.06279958 21.86674235 -1 20 C-1.1727863 17.3349909 -1.23225461 14.78672179 -1.1875 12.125 C-1.18685547 11.40441406 -1.18621094 10.68382812 -1.18554688 9.94140625 C-1.15701391 6.49842834 -1.07655309 3.28994624 0 0 Z M0 8 C-0.04125 9.258125 -0.0825 10.51625 -0.125 11.8125 C-0.14820313 12.52019531 -0.17140625 13.22789062 -0.1953125 13.95703125 C-0.13254462 16.31359719 -0.13254462 16.31359719 2 19 C1.67 15.37 1.34 11.74 1 8 C0.67 8 0.34 8 0 8 Z " fill="#0D171D" transform="translate(129,755)"/>
<path d="M0 0 C5.01919787 1.85575707 9.61727858 4.42691886 14.296875 6.99023438 C18.45095149 9.24106561 22.63092087 11.19930718 27 13 C27 13.33 27 13.66 27 14 C22.97007218 13.44687265 18.97977076 12.8441938 15 12 C15 11.34 15 10.68 15 10 C13.02 10.99 13.02 10.99 11 12 C11 11.34 11 10.68 11 10 C10.0409375 9.8453125 10.0409375 9.8453125 9.0625 9.6875 C8.0415625 9.3471875 8.0415625 9.3471875 7 9 C6.67 8.01 6.34 7.02 6 6 C4.00628175 4.65729179 2.0065438 3.32346506 0 2 C0 1.34 0 0.68 0 0 Z " fill="#122028" transform="translate(193,868)"/>
<path d="M0 0 C1.92057175 0.00502598 3.84114477 0.00958694 5.76171875 0.01367188 C10.42451118 0.02458833 15.08724119 0.0417922 19.75 0.0625 C19.75 0.3925 19.75 0.7225 19.75 1.0625 C18.1865686 1.092229 18.1865686 1.092229 16.59155273 1.12255859 C12.64945052 1.19979681 8.70766219 1.28830921 4.76586914 1.37988281 C3.0738758 1.41769272 1.38181507 1.45261988 -0.31030273 1.484375 C-10.04462252 1.66918558 -19.53609333 2.15157269 -29.16381836 3.64697266 C-31.91077953 4.01682693 -34.48421426 4.14206769 -37.25 4.0625 C-28.66956839 -3.32592993 -10.82840047 -0.04955148 0 0 Z " fill="#000005" transform="translate(276.25,132.9375)"/>
<path d="M0 0 C0.93174123 5.78591754 0.924141 10.72004793 0.0625 16.5 C-0.03740234 17.22703125 -0.13730469 17.9540625 -0.24023438 18.703125 C-0.48434725 20.47003721 -0.74085297 22.23523014 -1 24 C-4.11205833 20.62656144 -4.33614373 18.33237035 -4.1875 13.8125 C-4.16042969 12.74644531 -4.13335937 11.68039062 -4.10546875 10.58203125 C-4.07066406 9.72996094 -4.03585938 8.87789062 -4 8 C-4 7.67 -4 7.34 -4 7 C-4 5 -4 3 -4 1 C-1 0 -1 0 0 0 Z " fill="#0F222C" transform="translate(132,247)"/>
<path d="M0 0 C2.33944736 0.28730055 4.6739143 0.61936779 7 1 C7.33 1.99 7.66 2.98 8 4 C-0.58 4 -9.16 4 -18 4 C-13.56269238 0.67201928 -12.59353915 0.6739302 -7.3125 0.875 C-5.20909167 0.9451916 -3.10457098 0.99412951 -1 1 C-0.67 0.67 -0.34 0.34 0 0 Z " fill="#272E3D" transform="translate(482,892)"/>
<path d="M0 0 C0.66 0 1.32 0 2 0 C3.97599928 3.26304862 4.14674749 5.30552354 3.6875 9.0625 C3.57921875 10.01898438 3.4709375 10.97546875 3.359375 11.9609375 C3.18148437 13.46527344 3.18148437 13.46527344 3 15 C2.80653319 17.06194886 2.61875062 19.12444142 2.4375 21.1875 C2.29166667 22.79166667 2.14583333 24.39583333 2 26 C1.67 26 1.34 26 1 26 C0.67 17.42 0.34 8.84 0 0 Z " fill="#11232B" transform="translate(892,253)"/>
<path d="M0 0 C10.56 0 21.12 0 32 0 C32 0.33 32 0.66 32 1 C30.35 1 28.7 1 27 1 C26.67 1.66 26.34 2.32 26 3 C26 2.34 26 1.68 26 1 C25.45214844 1.15597656 24.90429688 1.31195312 24.33984375 1.47265625 C16.57724894 3.37859416 8.87124727 3.25939956 1 2 C0.67 1.34 0.34 0.68 0 0 Z " fill="#0A1E41" transform="translate(738,893)"/>
<path d="M0 0 C2.60466543 0.30872329 5.20867691 0.62181723 7.8125 0.9375 C8.55048828 1.02451172 9.28847656 1.11152344 10.04882812 1.20117188 C13.16733121 1.58216546 16.01108122 2.00369374 19 3 C18.42415568 5.38564077 17.77772405 7.66682784 17 10 C15.02 10 13.04 10 11 10 C14.75 6.125 14.75 6.125 17 5 C15.94039062 4.80664062 14.88078125 4.61328125 13.7890625 4.4140625 C12.40096447 4.15144936 11.01294776 3.88840614 9.625 3.625 C8.57699219 3.43550781 8.57699219 3.43550781 7.5078125 3.2421875 C2.2265625 2.2265625 2.2265625 2.2265625 0 0 Z " fill="#0E1419" transform="translate(524,630)"/>
<path d="M0 0 C5.78898419 -0.20674944 10.42932723 0.40837921 16 2 C12.1584024 4.56780471 8.1860825 4.22688882 3.75 4.125 C3.00492188 4.11597656 2.25984375 4.10695313 1.4921875 4.09765625 C-0.33868059 4.07418358 -2.16938238 4.03831525 -4 4 C-3.67 3.34 -3.34 2.68 -3 2 C-2.01 2 -1.02 2 0 2 C0 1.34 0 0.68 0 0 Z " fill="#203439" transform="translate(645,892)"/>
<path d="M0 0 C1.32 0.33 2.64 0.66 4 1 C-0.95 4.63 -5.9 8.26 -11 12 C-11 9 -11 9 -9 7 C-9.33 6.34 -9.66 5.68 -10 5 C-9.0925 4.731875 -8.185 4.46375 -7.25 4.1875 C-4.02682554 3.20342341 -4.02682554 3.20342341 -1.875 1.3125 C-1.25625 0.879375 -0.6375 0.44625 0 0 Z " fill="#111B25" transform="translate(192,155)"/>
<path d="M0 0 C7.26 0 14.52 0 22 0 C18.51665669 2.32222887 17.32764723 2.16558974 13.25 2 C8.34815078 1.90481846 4.59039926 2.33076391 0 4 C0 2.66666667 0 1.33333333 0 0 Z " fill="#21454E" transform="translate(378,892)"/>
<path d="M0 0 C0.33 0.99 0.66 1.98 1 3 C-0.65322094 5.36514852 -2.3004802 7.46165815 -4.1875 9.625 C-4.68314453 10.223125 -5.17878906 10.82125 -5.68945312 11.4375 C-8.35277181 14.54763701 -9.84402968 16.26420346 -14 17 C-13.175 16.05125 -12.35 15.1025 -11.5 14.125 C-7.54358862 9.51549679 -3.77324563 4.75965248 0 0 Z " fill="#0E1A21" transform="translate(865,833)"/>
<path d="M0 0 C4.25209792 4.12324647 8.13635705 8.51282966 12 13 C9 14 9 14 6.3125 12.75 C5.1678125 11.88375 5.1678125 11.88375 4 11 C4 10.01 4 9.02 4 8 C3.34 7.175 2.68 6.35 2 5.5 C0 3 0 3 0 0 Z " fill="#0F1F27" transform="translate(159,835)"/>
<path d="M0 0 C2.64 0.33 5.28 0.66 8 1 C5.50175511 3.81158409 2.721524 5.44837831 -0.5625 7.25 C-2.01849609 8.06210938 -2.01849609 8.06210938 -3.50390625 8.890625 C-4.32761719 9.25671875 -5.15132812 9.6228125 -6 10 C-6.66 9.67 -7.32 9.34 -8 9 C-5.3765992 6.08511023 -2.28183606 4.11496102 1 2 C0.67 1.34 0.34 0.68 0 0 Z " fill="#131C29" transform="translate(206,144)"/>
<path d="M0 0 C2.84614024 2.84614024 2.45579076 5.80369142 2.625 9.625 C2.68300781 10.68460938 2.68300781 10.68460938 2.7421875 11.765625 C2.83647724 13.50998524 2.91932891 15.25495691 3 17 C2.34 16.01 1.68 15.02 1 14 C0.67 15.65 0.34 17.3 0 19 C-0.33 19 -0.66 19 -1 19 C-0.67 12.73 -0.34 6.46 0 0 Z " fill="#0E181E" transform="translate(893,748)"/>
<path d="M0 0 C0.73828125 1.58203125 0.73828125 1.58203125 1 4 C-0.18085827 6.38795784 -1.36483564 8.47558643 -2.8125 10.6875 C-3.18181641 11.28111328 -3.55113281 11.87472656 -3.93164062 12.48632812 C-6.70453477 16.85226739 -6.70453477 16.85226739 -9 18 C-8.34628933 14.51354309 -6.93113107 11.99711976 -5.0625 9 C-3.23237877 6.0502223 -1.5006156 3.13171952 0 0 Z " fill="#111F28" transform="translate(876,815)"/>
<path d="M0 0 C0 3 0 3 -1 5 C-2.546875 5.8353125 -2.546875 5.8353125 -4.125 6.6875 C-8.48855179 9.06351267 -11.65241558 12.37768981 -15 16 C-15.66 15.67 -16.32 15.34 -17 15 C-11.64381862 9.44983217 -6.47601564 4.22348846 0 0 Z " fill="#090C0F" transform="translate(444,327)"/>
<path d="M0 0 C-0.33 0.99 -0.66 1.98 -1 3 C-7.93 3 -14.86 3 -22 3 C-22 2.34 -22 1.68 -22 1 C-20.86820313 1.01160156 -19.73640625 1.02320313 -18.5703125 1.03515625 C-17.08854331 1.04453454 -15.60677235 1.0536347 -14.125 1.0625 C-13.37863281 1.07087891 -12.63226562 1.07925781 -11.86328125 1.08789062 C-7.6102523 1.10704841 -4.16225229 0 0 0 Z " fill="#28343E" transform="translate(582,892)"/>
<path d="M0 0 C5.94 0 11.88 0 18 0 C16 2 16 2 13.42578125 2.16015625 C12.39839844 2.12792969 11.37101562 2.09570312 10.3125 2.0625 C5.71908004 1.97958628 1.51291079 2.17947077 -3 3 C-2.67 2.34 -2.34 1.68 -2 1 C-1.34 1.33 -0.68 1.66 0 2 C0 1.34 0 0.68 0 0 Z " fill="#254E56" transform="translate(464,892)"/>
<path d="M0 0 C0 0.66 0 1.32 0 2 C-2.39531756 2.33745354 -4.79114268 2.6700829 -7.1875 3 C-7.86103516 3.09539062 -8.53457031 3.19078125 -9.22851562 3.2890625 C-12.84664577 3.78324613 -16.34796401 4.11346131 -20 4 C-16.72610379 1.06451133 -14.34757644 0.55705117 -10 0.3125 C-8.96875 0.24675781 -7.9375 0.18101562 -6.875 0.11328125 C-4.58479937 0.02304237 -2.29197774 0 0 0 Z " fill="#08121B" transform="translate(259,133)"/>
<path d="M0 0 C0.33 0.66 0.66 1.32 1 2 C-5.27 2 -11.54 2 -18 2 C-17.67 1.34 -17.34 0.68 -17 0 C-11.35387567 -1.24387796 -5.61683125 -1.31457753 0 0 Z " fill="#122043" transform="translate(594,894)"/>
<path d="M0 0 C0 0.66 0 1.32 0 2 C-1.87260054 2.36664185 -3.74824693 2.71774366 -5.625 3.0625 C-6.66914062 3.25972656 -7.71328125 3.45695313 -8.7890625 3.66015625 C-12.10477629 4.01108946 -14.75401145 3.6969615 -18 3 C-18 2.67 -18 2.34 -18 2 C-16.12612523 1.6603981 -14.25083303 1.32861309 -12.375 1 C-11.33085938 0.814375 -10.28671875 0.62875 -9.2109375 0.4375 C-6.09425135 0.01284203 -3.14069188 -0.07545206 0 0 Z " fill="#0F1921" transform="translate(783,888)"/>
<path d="M0 0 C2 1 2 1 2.8515625 2.9609375 C3.10679687 3.75757813 3.36203125 4.55421875 3.625 5.375 C3.88539063 6.16648437 4.14578125 6.95796875 4.4140625 7.7734375 C5 10 5 10 5 13 C4.34 13 3.68 13 3 13 C2.67 13.66 2.34 14.32 2 15 C1.66048381 13.43883181 1.32867456 11.87598662 1 10.3125 C0.814375 9.44238281 0.62875 8.57226562 0.4375 7.67578125 C0.01027953 5.06287036 -0.07616201 2.64186962 0 0 Z M2 10 C3 12 3 12 3 12 Z " fill="#0F1928" transform="translate(137,792)"/>
<path d="M0 0 C0.66 0 1.32 0 2 0 C2.84681133 5.08086796 3.09038099 9.84828377 3 15 C2.34 15 1.68 15 1 15 C0.63536268 13.25215171 0.2836922 11.50159498 -0.0625 9.75 C-0.25972656 8.77546875 -0.45695313 7.8009375 -0.66015625 6.796875 C-0.98397535 4.131881 -0.85503199 2.51128277 0 0 Z " fill="#131F27" transform="translate(129,755)"/>
<path d="M0 0 C5.70709064 0.46588495 9.15939723 1.93757784 14 5 C14 5.66 14 6.32 14 7 C9.0276578 5.50829734 4.58154261 3.39542583 0 1 C0 0.67 0 0.34 0 0 Z " fill="#122329" transform="translate(806,144)"/>
<path d="M0 0 C6.27 0 12.54 0 19 0 C19 0.33 19 0.66 19 1 C13.3616833 2.76888367 8.7089222 3.90297407 3 2 C2.01 1.34 1.02 0.68 0 0 Z " fill="#2C3F4B" transform="translate(671,892)"/>
<path d="M0 0 C4.63708939 2.60836278 8.78744458 5.77002574 13 9 C11.296875 9.73828125 11.296875 9.73828125 9 10 C6.640625 8.41796875 6.640625 8.41796875 4.25 6.1875 C3.45078125 5.45917969 2.6515625 4.73085938 1.828125 3.98046875 C0 2 0 2 0 0 Z " fill="#121E27" transform="translate(179,857)"/>
<path d="M0 0 C0.66 0 1.32 0 2 0 C1.71517632 1.41805831 1.42181856 2.83440379 1.125 4.25 C0.88136719 5.43335938 0.88136719 5.43335938 0.6328125 6.640625 C0.00849925 8.96831144 -0.84838542 10.89031952 -2 13 C-2.33 13 -2.66 13 -3 13 C-3 10.36 -3 7.72 -3 5 C-2.34 5 -1.68 5 -1 5 C-0.67 3.35 -0.34 1.7 0 0 Z " fill="#0F1A26" transform="translate(140,218)"/>
<path d="M0 0 C3.63 0 7.26 0 11 0 C11 0.66 11 1.32 11 2 C12.65 2 14.3 2 16 2 C16 2.33 16 2.66 16 3 C10.21101581 3.20674944 5.57067277 2.59162079 0 1 C0 0.67 0 0.34 0 0 Z " fill="#214651" transform="translate(653,892)"/>
<path d="M0 0 C1.98 0 3.96 0 6 0 C5 3 5 3 2.8125 4.1875 C-0.25390311 5.07334979 -2.82438155 5.14770318 -6 5 C-2.25 2 -2.25 2 0 2 C0 1.34 0 0.68 0 0 Z " fill="#121D25" transform="translate(801,880)"/>
<path d="M0 0 C4.39381209 0.50214995 6.83419795 1.92213689 10 5 C10.8125 7.25 10.8125 7.25 11 9 C6.90784086 6.71320518 3.50049752 4.09346293 0 1 C0 0.67 0 0.34 0 0 Z " fill="#101E25" transform="translate(838,163)"/>
<path d="M0 0 C4.62 0 9.24 0 14 0 C14 0.66 14 1.32 14 2 C7.565 2.495 7.565 2.495 1 3 C0.67 2.01 0.34 1.02 0 0 Z " fill="#282B36" transform="translate(415,893)"/>
<path d="M0 0 C9.59453303 2.89066059 9.59453303 2.89066059 13 6 C8.97007218 5.44687265 4.97977076 4.8441938 1 4 C0.67 2.68 0.34 1.36 0 0 Z " fill="#0D161E" transform="translate(207,876)"/>
<path d="M0 0 C-1.78810766 0.69670416 -3.58062052 1.38211189 -5.375 2.0625 C-6.37273437 2.44535156 -7.37046875 2.82820312 -8.3984375 3.22265625 C-11 4 -11 4 -13 3 C-11.73102432 0.46204864 -10.78585978 0.27198938 -8.1875 -0.75 C-7.50042969 -1.03359375 -6.81335938 -1.3171875 -6.10546875 -1.609375 C-3.42425634 -2.10681701 -2.27247745 -1.40944669 0 0 Z " fill="#0C161D" transform="translate(231,140)"/>
<path d="M0 0 C4.21878192 -0.19622241 7.17010894 0.19769832 11 2 C11 2.33 11 2.66 11 3 C9.54176788 3.0270043 8.08339325 3.04639787 6.625 3.0625 C5.81289063 3.07410156 5.00078125 3.08570313 4.1640625 3.09765625 C2 3 2 3 0 2 C0 1.34 0 0.68 0 0 Z " fill="#12515E" transform="translate(728,892)"/>
<path d="M0 0 C4.29 0 8.58 0 13 0 C11.68 0.33 10.36 0.66 9 1 C9 1.66 9 2.32 9 3 C4.45804635 3.37849614 3.9855604 2.9891703 0 0 Z " fill="#214C54" transform="translate(701,892)"/>
<path d="M0 0 C0.66 0.33 1.32 0.66 2 1 C1.34 1.66 0.68 2.32 0 3 C-0.70710678 4.64991582 -1.37943989 6.31562256 -2 8 C-2.99 8 -3.98 8 -5 8 C-5 8.66 -5 9.32 -5 10 C-5.66 9.67 -6.32 9.34 -7 9 C-4.69 6.03 -2.38 3.06 0 0 Z " fill="#0B1419" transform="translate(477,482)"/>
<path d="M0 0 C0.33 2.64 0.66 5.28 1 8 C0.01 8.33 -0.98 8.66 -2 9 C-4 7 -4 7 -4.125 3.875 C-4.08375 2.92625 -4.0425 1.9775 -4 1 C-1 0 -1 0 0 0 Z " fill="#131E23" transform="translate(132,247)"/>
<path d="M0 0 C0.33 0 0.66 0 1 0 C1.1953125 2.05078125 1.390625 4.1015625 1.5859375 6.15234375 C1.72257813 6.76207031 1.85921875 7.37179687 2 8 C2.66 8.33 3.32 8.66 4 9 C3.67 10.65 3.34 12.3 3 14 C2.01 13.34 1.02 12.68 0 12 C-0.29296875 9.1796875 -0.29296875 9.1796875 -0.1875 5.875 C-0.16042969 4.77929688 -0.13335937 3.68359375 -0.10546875 2.5546875 C-0.07066406 1.71164062 -0.03585938 0.86859375 0 0 Z " fill="#0C2255" transform="translate(128,763)"/>
<path d="M0 0 C3.3 0.33 6.6 0.66 10 1 C9.67 1.66 9.34 2.32 9 3 C6.03 3 3.06 3 0 3 C0 2.01 0 1.02 0 0 Z " fill="#1F303F" transform="translate(330,892)"/>
<path d="M0 0 C4.24822374 0.47202486 6.19989709 2.96655518 9 6 C5.51669784 5.35494404 2.90567134 4.01782732 0 2 C0 1.34 0 0.68 0 0 Z " fill="#121D27" transform="translate(829,156)"/>
<path d="M0 0 C2.31 0.33 4.62 0.66 7 1 C7.33 1.99 7.66 2.98 8 4 C3.545 3.01 3.545 3.01 -1 2 C-0.67 1.34 -0.34 0.68 0 0 Z " fill="#1E3135" transform="translate(482,892)"/>
<path d="M0 0 C0.66 0 1.32 0 2 0 C3.38938077 1.96147874 4.7260411 3.96166576 6 6 C3.125 5.6875 3.125 5.6875 0 5 C-0.66 4.01 -1.32 3.02 -2 2 C-1.34 2 -0.68 2 0 2 C0 1.34 0 0.68 0 0 Z " fill="#0B131A" transform="translate(165,843)"/>
<path d="M0 0 C2.10633718 1.70828921 2.93801608 2.52148416 3.29296875 5.26171875 C3.25816406 6.06222656 3.22335937 6.86273438 3.1875 7.6875 C3.16042969 8.49574219 3.13335938 9.30398437 3.10546875 10.13671875 C3.07066406 10.75160156 3.03585937 11.36648437 3 12 C0.7655402 7.96707255 0.45503257 4.55032566 0 0 Z " fill="#0B1319" transform="translate(889,240)"/>
<path d="M0 0 C0.66 0 1.32 0 2 0 C1.25 7.75 1.25 7.75 -1 10 C-1.125 3.375 -1.125 3.375 0 0 Z " fill="#0E1820" transform="translate(135,232)"/>
<path d="M0 0 C0.8125 1.6875 0.8125 1.6875 1 4 C-1.4375 6.75 -1.4375 6.75 -4 9 C-4 5.00095031 -2.27413033 3.19799578 0 0 Z " fill="#11242A" transform="translate(158,187)"/>
<path d="M0 0 C0.66 -0.33 1.32 -0.66 2 -1 C2.33 -0.01 2.66 0.98 3 2 C-0.3 2 -3.6 2 -7 2 C-7 1.34 -7 0.68 -7 0 C-3.7807732 -1.0730756 -3.09793558 -0.79946725 0 0 Z " fill="#1C1C1F" transform="translate(533,894)"/>
<path d="M0 0 C0.6875 1.6875 0.6875 1.6875 1 4 C-0.4375 6.75 -0.4375 6.75 -2 9 C-2.66 8.34 -3.32 7.68 -4 7 C-2.68 4.69 -1.36 2.38 0 0 Z " fill="#111E25" transform="translate(881,805)"/>
<path d="M0 0 C2.97 0.33 5.94 0.66 9 1 C8.67 1.66 8.34 2.32 8 3 C5.125 3.1875 5.125 3.1875 2 3 C1.34 2.01 0.68 1.02 0 0 Z " fill="#092736" transform="translate(540,893)"/>
<path d="M0 0 C0.99 0 1.98 0 3 0 C3 0.66 3 1.32 3 2 C3.66 2.33 4.32 2.66 5 3 C2.29120665 4.35439668 -0.00933268 4.06501451 -3 4 C-3.33 3.34 -3.66 2.68 -4 2 C-2.68 2 -1.36 2 0 2 C0 1.34 0 0.68 0 0 Z " fill="#21293A" transform="translate(725,892)"/>
<path d="M0 0 C-1.15173355 2.46800047 -2.04783565 4.04783565 -4 6 C-4.99 5.67 -5.98 5.34 -7 5 C-2.25 0 -2.25 0 0 0 Z " fill="#0F1B23" transform="translate(851,851)"/>
<path d="M0 0 C1.65 0 3.3 0 5 0 C4.01 0.495 4.01 0.495 3 1 C3 1.66 3 2.32 3 3 C2.34 3 1.68 3 1 3 C0.67 2.01 0.34 1.02 0 0 Z " fill="#0C2929" transform="translate(255,893)"/>
<path d="M0 0 C1.32 0.33 2.64 0.66 4 1 C3.01 1.495 3.01 1.495 2 2 C1.34 1.34 0.68 0.68 0 0 Z " fill="#000019" transform="translate(152,834)"/>
<path d="M0 0 C0.66 0 1.32 0 2 0 C1.67 0.66 1.34 1.32 1 2 C0.67 1.34 0.34 0.68 0 0 Z " fill="#000000" transform="translate(250,892)"/>
<path d="M0 0 C3 1 3 1 3 1 Z " fill="#00002A" transform="translate(795,887)"/>
<path d="M0 0 C0.66 0.66 1.32 1.32 2 2 C1.34 2 0.68 2 0 2 C0 1.34 0 0.68 0 0 Z " fill="#00002A" transform="translate(180,861)"/>
<path d="M0 0 C0.33 0.66 0.66 1.32 1 2 C0.34 1.67 -0.32 1.34 -1 1 C-0.67 0.67 -0.34 0.34 0 0 Z " fill="#00002A" transform="translate(145,817)"/>
<path d="" fill="#00002A" transform="translate(0,0)"/>
<path d="" fill="#000055" transform="translate(0,0)"/>
<path d="M0 0 C0.99 0.495 0.99 0.495 2 1 C1.01 1.495 1.01 1.495 0 2 C0 1.34 0 0.68 0 0 Z " fill="#000000" transform="translate(877,203)"/>
<path d="M0 0 C0.99 0.495 0.99 0.495 2 1 C1.01 1.495 1.01 1.495 0 2 C0 1.34 0 0.68 0 0 Z " fill="#000000" transform="translate(842,161)"/>
<path d="M0 0 C3 1 3 1 3 1 Z " fill="#000080" transform="translate(248,131)"/>
<path d="M0 0 C2 1 2 1 2 1 Z " fill="#000080" transform="translate(241,891)"/>
<path d="M0 0 C2 1 2 1 2 1 Z " fill="#000000" transform="translate(218,884)"/>
<path d="" fill="#002A2A" transform="translate(0,0)"/>
<path d="" fill="#002A2A" transform="translate(0,0)"/>
<path d="" fill="#002A2A" transform="translate(0,0)"/>
<path d="" fill="#000040" transform="translate(0,0)"/>
<path d="" fill="#002A6A" transform="translate(0,0)"/>
<path d="" fill="#202020" transform="translate(0,0)"/>
<path d="" fill="#000000" transform="translate(0,0)"/>
<path d="M0 0 C2 1 2 1 2 1 Z " fill="#191919" transform="translate(813,144)"/>
<path d="" fill="#000000" transform="translate(0,0)"/>
<path d="" fill="#000000" transform="translate(0,0)"/>
<path d="" fill="#000080" transform="translate(0,0)"/>
<path d="" fill="#000000" transform="translate(0,0)"/>
<path d="" fill="#000000" transform="translate(0,0)"/>
<path d="" fill="#000000" transform="translate(0,0)"/>
<path d="" fill="#000000" transform="translate(0,0)"/>
<path d="" fill="#000000" transform="translate(0,0)"/>
<path d="" fill="#000000" transform="translate(0,0)"/>
<path d="" fill="#005555" transform="translate(0,0)"/>
<path d="" fill="#000080" transform="translate(0,0)"/>
<path d="" fill="#005555" transform="translate(0,0)"/>
<path d="" fill="#000080" transform="translate(0,0)"/>
<path d="" fill="#005555" transform="translate(0,0)"/>
<path d="" fill="#000000" transform="translate(0,0)"/>
<path d="" fill="#000000" transform="translate(0,0)"/>
<path d="" fill="#000000" transform="translate(0,0)"/>
<path d="" fill="#005555" transform="translate(0,0)"/>
<path d="" fill="#000000" transform="translate(0,0)"/>
<path d="" fill="#000080" transform="translate(0,0)"/>
<path d="" fill="#000000" transform="translate(0,0)"/>
<path d="" fill="#000000" transform="translate(0,0)"/>
<path d="" fill="#000000" transform="translate(0,0)"/>
<path d="" fill="#000080" transform="translate(0,0)"/>
<path d="" fill="#333333" transform="translate(0,0)"/>
<path d="" fill="#000000" transform="translate(0,0)"/>
<path d="" fill="#005555" transform="translate(0,0)"/>
<path d="" fill="#000080" transform="translate(0,0)"/>
<path d="" fill="#000000" transform="translate(0,0)"/>
<path d="" fill="#005555" transform="translate(0,0)"/>
<path d="" fill="#005555" transform="translate(0,0)"/>
<path d="" fill="#000000" transform="translate(0,0)"/>
<path d="" fill="#005555" transform="translate(0,0)"/>
<path d="" fill="#000080" transform="translate(0,0)"/>
<path d="" fill="#000000" transform="translate(0,0)"/>
<path d="" fill="#000000" transform="translate(0,0)"/>
<path d="" fill="#005555" transform="translate(0,0)"/>
<path d="" fill="#000000" transform="translate(0,0)"/>
<path d="" fill="#000000" transform="translate(0,0)"/>
<path d="" fill="#000000" transform="translate(0,0)"/>
<path d="" fill="#000000" transform="translate(0,0)"/>
<path d="" fill="#005555" transform="translate(0,0)"/>
<path d="" fill="#000000" transform="translate(0,0)"/>
<path d="" fill="#000080" transform="translate(0,0)"/>
<path d="" fill="#000000" transform="translate(0,0)"/>
<path d="" fill="#000000" transform="translate(0,0)"/>
<path d="" fill="#000000" transform="translate(0,0)"/>
<path d="" fill="#000080" transform="translate(0,0)"/>
<path d="" fill="#000000" transform="translate(0,0)"/>
<path d="" fill="#000000" transform="translate(0,0)"/>
<path d="" fill="#005555" transform="translate(0,0)"/>
<path d="" fill="#000000" transform="translate(0,0)"/>
<path d="" fill="#000000" transform="translate(0,0)"/>
<path d="" fill="#000000" transform="translate(0,0)"/>
<path d="" fill="#000000" transform="translate(0,0)"/>
<path d="" fill="#000000" transform="translate(0,0)"/>
<path d="" fill="#000080" transform="translate(0,0)"/>
<path d="" fill="#000000" transform="translate(0,0)"/>
<path d="" fill="#000000" transform="translate(0,0)"/>
<path d="" fill="#000000" transform="translate(0,0)"/>
<path d="" fill="#000000" transform="translate(0,0)"/>
<path d="" fill="#000000" transform="translate(0,0)"/>
<path d="" fill="#000080" transform="translate(0,0)"/>
<path d="" fill="#000000" transform="translate(0,0)"/>
<path d="" fill="#000080" transform="translate(0,0)"/>
<path d="" fill="#000000" transform="translate(0,0)"/>
<path d="" fill="#000000" transform="translate(0,0)"/>
<path d="" fill="#005555" transform="translate(0,0)"/>
<path d="" fill="#005555" transform="translate(0,0)"/>
<path d="" fill="#000000" transform="translate(0,0)"/>
<path d="" fill="#000000" transform="translate(0,0)"/>
<path d="" fill="#000000" transform="translate(0,0)"/>
<path d="" fill="#000000" transform="translate(0,0)"/>
<path d="" fill="#000000" transform="translate(0,0)"/>
<path d="" fill="#000000" transform="translate(0,0)"/>
<path d="" fill="#000000" transform="translate(0,0)"/>
<path d="" fill="#404040" transform="translate(0,0)"/>
<path d="" fill="#000000" transform="translate(0,0)"/>
<path d="" fill="#000000" transform="translate(0,0)"/>
<path d="" fill="#000000" transform="translate(0,0)"/>
<path d="" fill="#000000" transform="translate(0,0)"/>
<path d="" fill="#000000" transform="translate(0,0)"/>
<path d="" fill="#000000" transform="translate(0,0)"/>
<path d="" fill="#000000" transform="translate(0,0)"/>
<path d="" fill="#000000" transform="translate(0,0)"/>
<path d="" fill="#000000" transform="translate(0,0)"/>
<path d="" fill="#000000" transform="translate(0,0)"/>
<path d="" fill="#000000" transform="translate(0,0)"/>
<path d="" fill="#000000" transform="translate(0,0)"/>
<path d="" fill="#000000" transform="translate(0,0)"/>
<path d="" fill="#000000" transform="translate(0,0)"/>
<path d="" fill="#000000" transform="translate(0,0)"/>
<path d="" fill="#000000" transform="translate(0,0)"/>
<path d="" fill="#000000" transform="translate(0,0)"/>
<path d="" fill="#000080" transform="translate(0,0)"/>
<path d="" fill="#000000" transform="translate(0,0)"/>
<path d="" fill="#000080" transform="translate(0,0)"/>
<path d="" fill="#000000" transform="translate(0,0)"/>
<path d="" fill="#000080" transform="translate(0,0)"/>
<path d="" fill="#000000" transform="translate(0,0)"/>
<path d="" fill="#000000" transform="translate(0,0)"/>
<path d="" fill="#000000" transform="translate(0,0)"/>
<path d="" fill="#000000" transform="translate(0,0)"/>
<path d="" fill="#000000" transform="translate(0,0)"/>
<path d="" fill="#000000" transform="translate(0,0)"/>
<path d="" fill="#000000" transform="translate(0,0)"/>
<path d="" fill="#000000" transform="translate(0,0)"/>
<path d="" fill="#000000" transform="translate(0,0)"/>
<path d="" fill="#000000" transform="translate(0,0)"/>
<path d="" fill="#000080" transform="translate(0,0)"/>
<path d="" fill="#000000" transform="translate(0,0)"/>
<path d="" fill="#000000" transform="translate(0,0)"/>
<path d="" fill="#000000" transform="translate(0,0)"/>
<path d="" fill="#000000" transform="translate(0,0)"/>
<path d="" fill="#000000" transform="translate(0,0)"/>
<path d="" fill="#000000" transform="translate(0,0)"/>
<path d="" fill="#000000" transform="translate(0,0)"/>
<path d="" fill="#000080" transform="translate(0,0)"/>
<path d="" fill="#000000" transform="translate(0,0)"/>
<path d="" fill="#000000" transform="translate(0,0)"/>
</svg>
